<mxfile host="app.diagrams.net" modified="2023-12-02T02:54:28.675Z" agent="Mozilla/5.0 (Windows NT 10.0; Win64; x64) AppleWebKit/537.36 (KHTML, like Gecko) Chrome/119.0.0.0 Safari/537.36 Edg/119.0.0.0" etag="atpSpck9qzc-XBFX68Mn" version="22.1.5" type="github" pages="3">
  <diagram name="Entity" id="13WCGMMGAoBStpWHaFRB">
    <mxGraphModel dx="2043" dy="3078" grid="1" gridSize="10" guides="1" tooltips="1" connect="1" arrows="1" fold="1" page="1" pageScale="1" pageWidth="827" pageHeight="1169" math="0" shadow="0">
      <root>
        <mxCell id="0" />
        <mxCell id="1" parent="0" />
        <mxCell id="f9uIw9wc-rNyhUylqqAu-1" value="Book" style="shape=table;startSize=30;container=1;collapsible=1;childLayout=tableLayout;fixedRows=1;rowLines=0;fontStyle=1;align=center;resizeLast=1;html=1;" parent="1" vertex="1">
          <mxGeometry x="490" y="-983" width="180" height="240" as="geometry" />
        </mxCell>
        <mxCell id="f9uIw9wc-rNyhUylqqAu-2" value="" style="shape=tableRow;horizontal=0;startSize=0;swimlaneHead=0;swimlaneBody=0;fillColor=none;collapsible=0;dropTarget=0;points=[[0,0.5],[1,0.5]];portConstraint=eastwest;top=0;left=0;right=0;bottom=1;" parent="f9uIw9wc-rNyhUylqqAu-1" vertex="1">
          <mxGeometry y="30" width="180" height="30" as="geometry" />
        </mxCell>
        <mxCell id="f9uIw9wc-rNyhUylqqAu-3" value="PK" style="shape=partialRectangle;connectable=0;fillColor=none;top=0;left=0;bottom=0;right=0;fontStyle=1;overflow=hidden;whiteSpace=wrap;html=1;" parent="f9uIw9wc-rNyhUylqqAu-2" vertex="1">
          <mxGeometry width="30" height="30" as="geometry">
            <mxRectangle width="30" height="30" as="alternateBounds" />
          </mxGeometry>
        </mxCell>
        <mxCell id="f9uIw9wc-rNyhUylqqAu-4" value="id" style="shape=partialRectangle;connectable=0;fillColor=none;top=0;left=0;bottom=0;right=0;align=left;spacingLeft=6;fontStyle=5;overflow=hidden;whiteSpace=wrap;html=1;" parent="f9uIw9wc-rNyhUylqqAu-2" vertex="1">
          <mxGeometry x="30" width="150" height="30" as="geometry">
            <mxRectangle width="150" height="30" as="alternateBounds" />
          </mxGeometry>
        </mxCell>
        <mxCell id="f9uIw9wc-rNyhUylqqAu-5" value="" style="shape=tableRow;horizontal=0;startSize=0;swimlaneHead=0;swimlaneBody=0;fillColor=none;collapsible=0;dropTarget=0;points=[[0,0.5],[1,0.5]];portConstraint=eastwest;top=0;left=0;right=0;bottom=0;" parent="f9uIw9wc-rNyhUylqqAu-1" vertex="1">
          <mxGeometry y="60" width="180" height="30" as="geometry" />
        </mxCell>
        <mxCell id="f9uIw9wc-rNyhUylqqAu-6" value="" style="shape=partialRectangle;connectable=0;fillColor=none;top=0;left=0;bottom=0;right=0;editable=1;overflow=hidden;whiteSpace=wrap;html=1;" parent="f9uIw9wc-rNyhUylqqAu-5" vertex="1">
          <mxGeometry width="30" height="30" as="geometry">
            <mxRectangle width="30" height="30" as="alternateBounds" />
          </mxGeometry>
        </mxCell>
        <mxCell id="f9uIw9wc-rNyhUylqqAu-7" value="title" style="shape=partialRectangle;connectable=0;fillColor=none;top=0;left=0;bottom=0;right=0;align=left;spacingLeft=6;overflow=hidden;whiteSpace=wrap;html=1;" parent="f9uIw9wc-rNyhUylqqAu-5" vertex="1">
          <mxGeometry x="30" width="150" height="30" as="geometry">
            <mxRectangle width="150" height="30" as="alternateBounds" />
          </mxGeometry>
        </mxCell>
        <mxCell id="f9uIw9wc-rNyhUylqqAu-8" value="" style="shape=tableRow;horizontal=0;startSize=0;swimlaneHead=0;swimlaneBody=0;fillColor=none;collapsible=0;dropTarget=0;points=[[0,0.5],[1,0.5]];portConstraint=eastwest;top=0;left=0;right=0;bottom=0;" parent="f9uIw9wc-rNyhUylqqAu-1" vertex="1">
          <mxGeometry y="90" width="180" height="30" as="geometry" />
        </mxCell>
        <mxCell id="f9uIw9wc-rNyhUylqqAu-9" value="" style="shape=partialRectangle;connectable=0;fillColor=none;top=0;left=0;bottom=0;right=0;editable=1;overflow=hidden;whiteSpace=wrap;html=1;" parent="f9uIw9wc-rNyhUylqqAu-8" vertex="1">
          <mxGeometry width="30" height="30" as="geometry">
            <mxRectangle width="30" height="30" as="alternateBounds" />
          </mxGeometry>
        </mxCell>
        <mxCell id="f9uIw9wc-rNyhUylqqAu-10" value="author" style="shape=partialRectangle;connectable=0;fillColor=none;top=0;left=0;bottom=0;right=0;align=left;spacingLeft=6;overflow=hidden;whiteSpace=wrap;html=1;" parent="f9uIw9wc-rNyhUylqqAu-8" vertex="1">
          <mxGeometry x="30" width="150" height="30" as="geometry">
            <mxRectangle width="150" height="30" as="alternateBounds" />
          </mxGeometry>
        </mxCell>
        <mxCell id="f9uIw9wc-rNyhUylqqAu-11" value="" style="shape=tableRow;horizontal=0;startSize=0;swimlaneHead=0;swimlaneBody=0;fillColor=none;collapsible=0;dropTarget=0;points=[[0,0.5],[1,0.5]];portConstraint=eastwest;top=0;left=0;right=0;bottom=0;" parent="f9uIw9wc-rNyhUylqqAu-1" vertex="1">
          <mxGeometry y="120" width="180" height="30" as="geometry" />
        </mxCell>
        <mxCell id="f9uIw9wc-rNyhUylqqAu-12" value="" style="shape=partialRectangle;connectable=0;fillColor=none;top=0;left=0;bottom=0;right=0;editable=1;overflow=hidden;whiteSpace=wrap;html=1;" parent="f9uIw9wc-rNyhUylqqAu-11" vertex="1">
          <mxGeometry width="30" height="30" as="geometry">
            <mxRectangle width="30" height="30" as="alternateBounds" />
          </mxGeometry>
        </mxCell>
        <mxCell id="f9uIw9wc-rNyhUylqqAu-13" value="publisher" style="shape=partialRectangle;connectable=0;fillColor=none;top=0;left=0;bottom=0;right=0;align=left;spacingLeft=6;overflow=hidden;whiteSpace=wrap;html=1;" parent="f9uIw9wc-rNyhUylqqAu-11" vertex="1">
          <mxGeometry x="30" width="150" height="30" as="geometry">
            <mxRectangle width="150" height="30" as="alternateBounds" />
          </mxGeometry>
        </mxCell>
        <mxCell id="f9uIw9wc-rNyhUylqqAu-14" value="" style="shape=tableRow;horizontal=0;startSize=0;swimlaneHead=0;swimlaneBody=0;fillColor=none;collapsible=0;dropTarget=0;points=[[0,0.5],[1,0.5]];portConstraint=eastwest;top=0;left=0;right=0;bottom=0;" parent="f9uIw9wc-rNyhUylqqAu-1" vertex="1">
          <mxGeometry y="150" width="180" height="30" as="geometry" />
        </mxCell>
        <mxCell id="f9uIw9wc-rNyhUylqqAu-15" value="" style="shape=partialRectangle;connectable=0;fillColor=none;top=0;left=0;bottom=0;right=0;editable=1;overflow=hidden;whiteSpace=wrap;html=1;" parent="f9uIw9wc-rNyhUylqqAu-14" vertex="1">
          <mxGeometry width="30" height="30" as="geometry">
            <mxRectangle width="30" height="30" as="alternateBounds" />
          </mxGeometry>
        </mxCell>
        <mxCell id="f9uIw9wc-rNyhUylqqAu-16" value="publication_date" style="shape=partialRectangle;connectable=0;fillColor=none;top=0;left=0;bottom=0;right=0;align=left;spacingLeft=6;overflow=hidden;whiteSpace=wrap;html=1;" parent="f9uIw9wc-rNyhUylqqAu-14" vertex="1">
          <mxGeometry x="30" width="150" height="30" as="geometry">
            <mxRectangle width="150" height="30" as="alternateBounds" />
          </mxGeometry>
        </mxCell>
        <mxCell id="f9uIw9wc-rNyhUylqqAu-17" value="" style="shape=tableRow;horizontal=0;startSize=0;swimlaneHead=0;swimlaneBody=0;fillColor=none;collapsible=0;dropTarget=0;points=[[0,0.5],[1,0.5]];portConstraint=eastwest;top=0;left=0;right=0;bottom=0;" parent="f9uIw9wc-rNyhUylqqAu-1" vertex="1">
          <mxGeometry y="180" width="180" height="30" as="geometry" />
        </mxCell>
        <mxCell id="f9uIw9wc-rNyhUylqqAu-18" value="" style="shape=partialRectangle;connectable=0;fillColor=none;top=0;left=0;bottom=0;right=0;editable=1;overflow=hidden;whiteSpace=wrap;html=1;" parent="f9uIw9wc-rNyhUylqqAu-17" vertex="1">
          <mxGeometry width="30" height="30" as="geometry">
            <mxRectangle width="30" height="30" as="alternateBounds" />
          </mxGeometry>
        </mxCell>
        <mxCell id="f9uIw9wc-rNyhUylqqAu-19" value="stock" style="shape=partialRectangle;connectable=0;fillColor=none;top=0;left=0;bottom=0;right=0;align=left;spacingLeft=6;overflow=hidden;whiteSpace=wrap;html=1;" parent="f9uIw9wc-rNyhUylqqAu-17" vertex="1">
          <mxGeometry x="30" width="150" height="30" as="geometry">
            <mxRectangle width="150" height="30" as="alternateBounds" />
          </mxGeometry>
        </mxCell>
        <mxCell id="56AAxWMqqsvW7jfmM_Hw-20" value="" style="shape=tableRow;horizontal=0;startSize=0;swimlaneHead=0;swimlaneBody=0;fillColor=none;collapsible=0;dropTarget=0;points=[[0,0.5],[1,0.5]];portConstraint=eastwest;top=0;left=0;right=0;bottom=0;" parent="f9uIw9wc-rNyhUylqqAu-1" vertex="1">
          <mxGeometry y="210" width="180" height="30" as="geometry" />
        </mxCell>
        <mxCell id="56AAxWMqqsvW7jfmM_Hw-21" value="" style="shape=partialRectangle;connectable=0;fillColor=none;top=0;left=0;bottom=0;right=0;editable=1;overflow=hidden;whiteSpace=wrap;html=1;" parent="56AAxWMqqsvW7jfmM_Hw-20" vertex="1">
          <mxGeometry width="30" height="30" as="geometry">
            <mxRectangle width="30" height="30" as="alternateBounds" />
          </mxGeometry>
        </mxCell>
        <mxCell id="56AAxWMqqsvW7jfmM_Hw-22" value="read" style="shape=partialRectangle;connectable=0;fillColor=none;top=0;left=0;bottom=0;right=0;align=left;spacingLeft=6;overflow=hidden;whiteSpace=wrap;html=1;" parent="56AAxWMqqsvW7jfmM_Hw-20" vertex="1">
          <mxGeometry x="30" width="150" height="30" as="geometry">
            <mxRectangle width="150" height="30" as="alternateBounds" />
          </mxGeometry>
        </mxCell>
        <mxCell id="f9uIw9wc-rNyhUylqqAu-59" value="Visitor" style="shape=table;startSize=30;container=1;collapsible=1;childLayout=tableLayout;fixedRows=1;rowLines=0;fontStyle=1;align=center;resizeLast=1;html=1;" parent="1" vertex="1">
          <mxGeometry x="170" y="-1270" width="180" height="180" as="geometry" />
        </mxCell>
        <mxCell id="f9uIw9wc-rNyhUylqqAu-60" value="" style="shape=tableRow;horizontal=0;startSize=0;swimlaneHead=0;swimlaneBody=0;fillColor=none;collapsible=0;dropTarget=0;points=[[0,0.5],[1,0.5]];portConstraint=eastwest;top=0;left=0;right=0;bottom=1;" parent="f9uIw9wc-rNyhUylqqAu-59" vertex="1">
          <mxGeometry y="30" width="180" height="30" as="geometry" />
        </mxCell>
        <mxCell id="f9uIw9wc-rNyhUylqqAu-61" value="PK" style="shape=partialRectangle;connectable=0;fillColor=none;top=0;left=0;bottom=0;right=0;fontStyle=1;overflow=hidden;whiteSpace=wrap;html=1;" parent="f9uIw9wc-rNyhUylqqAu-60" vertex="1">
          <mxGeometry width="30" height="30" as="geometry">
            <mxRectangle width="30" height="30" as="alternateBounds" />
          </mxGeometry>
        </mxCell>
        <mxCell id="f9uIw9wc-rNyhUylqqAu-62" value="id" style="shape=partialRectangle;connectable=0;fillColor=none;top=0;left=0;bottom=0;right=0;align=left;spacingLeft=6;fontStyle=5;overflow=hidden;whiteSpace=wrap;html=1;" parent="f9uIw9wc-rNyhUylqqAu-60" vertex="1">
          <mxGeometry x="30" width="150" height="30" as="geometry">
            <mxRectangle width="150" height="30" as="alternateBounds" />
          </mxGeometry>
        </mxCell>
        <mxCell id="f9uIw9wc-rNyhUylqqAu-63" value="" style="shape=tableRow;horizontal=0;startSize=0;swimlaneHead=0;swimlaneBody=0;fillColor=none;collapsible=0;dropTarget=0;points=[[0,0.5],[1,0.5]];portConstraint=eastwest;top=0;left=0;right=0;bottom=0;" parent="f9uIw9wc-rNyhUylqqAu-59" vertex="1">
          <mxGeometry y="60" width="180" height="30" as="geometry" />
        </mxCell>
        <mxCell id="f9uIw9wc-rNyhUylqqAu-64" value="" style="shape=partialRectangle;connectable=0;fillColor=none;top=0;left=0;bottom=0;right=0;editable=1;overflow=hidden;whiteSpace=wrap;html=1;" parent="f9uIw9wc-rNyhUylqqAu-63" vertex="1">
          <mxGeometry width="30" height="30" as="geometry">
            <mxRectangle width="30" height="30" as="alternateBounds" />
          </mxGeometry>
        </mxCell>
        <mxCell id="f9uIw9wc-rNyhUylqqAu-65" value="name" style="shape=partialRectangle;connectable=0;fillColor=none;top=0;left=0;bottom=0;right=0;align=left;spacingLeft=6;overflow=hidden;whiteSpace=wrap;html=1;" parent="f9uIw9wc-rNyhUylqqAu-63" vertex="1">
          <mxGeometry x="30" width="150" height="30" as="geometry">
            <mxRectangle width="150" height="30" as="alternateBounds" />
          </mxGeometry>
        </mxCell>
        <mxCell id="f9uIw9wc-rNyhUylqqAu-66" value="" style="shape=tableRow;horizontal=0;startSize=0;swimlaneHead=0;swimlaneBody=0;fillColor=none;collapsible=0;dropTarget=0;points=[[0,0.5],[1,0.5]];portConstraint=eastwest;top=0;left=0;right=0;bottom=0;" parent="f9uIw9wc-rNyhUylqqAu-59" vertex="1">
          <mxGeometry y="90" width="180" height="30" as="geometry" />
        </mxCell>
        <mxCell id="f9uIw9wc-rNyhUylqqAu-67" value="" style="shape=partialRectangle;connectable=0;fillColor=none;top=0;left=0;bottom=0;right=0;editable=1;overflow=hidden;whiteSpace=wrap;html=1;" parent="f9uIw9wc-rNyhUylqqAu-66" vertex="1">
          <mxGeometry width="30" height="30" as="geometry">
            <mxRectangle width="30" height="30" as="alternateBounds" />
          </mxGeometry>
        </mxCell>
        <mxCell id="f9uIw9wc-rNyhUylqqAu-68" value="address" style="shape=partialRectangle;connectable=0;fillColor=none;top=0;left=0;bottom=0;right=0;align=left;spacingLeft=6;overflow=hidden;whiteSpace=wrap;html=1;" parent="f9uIw9wc-rNyhUylqqAu-66" vertex="1">
          <mxGeometry x="30" width="150" height="30" as="geometry">
            <mxRectangle width="150" height="30" as="alternateBounds" />
          </mxGeometry>
        </mxCell>
        <mxCell id="f9uIw9wc-rNyhUylqqAu-69" value="" style="shape=tableRow;horizontal=0;startSize=0;swimlaneHead=0;swimlaneBody=0;fillColor=none;collapsible=0;dropTarget=0;points=[[0,0.5],[1,0.5]];portConstraint=eastwest;top=0;left=0;right=0;bottom=0;" parent="f9uIw9wc-rNyhUylqqAu-59" vertex="1">
          <mxGeometry y="120" width="180" height="30" as="geometry" />
        </mxCell>
        <mxCell id="f9uIw9wc-rNyhUylqqAu-70" value="" style="shape=partialRectangle;connectable=0;fillColor=none;top=0;left=0;bottom=0;right=0;editable=1;overflow=hidden;whiteSpace=wrap;html=1;" parent="f9uIw9wc-rNyhUylqqAu-69" vertex="1">
          <mxGeometry width="30" height="30" as="geometry">
            <mxRectangle width="30" height="30" as="alternateBounds" />
          </mxGeometry>
        </mxCell>
        <mxCell id="f9uIw9wc-rNyhUylqqAu-71" value="email" style="shape=partialRectangle;connectable=0;fillColor=none;top=0;left=0;bottom=0;right=0;align=left;spacingLeft=6;overflow=hidden;whiteSpace=wrap;html=1;" parent="f9uIw9wc-rNyhUylqqAu-69" vertex="1">
          <mxGeometry x="30" width="150" height="30" as="geometry">
            <mxRectangle width="150" height="30" as="alternateBounds" />
          </mxGeometry>
        </mxCell>
        <mxCell id="74bKICHIjmPeZ6uD2Ho_-36" value="" style="shape=tableRow;horizontal=0;startSize=0;swimlaneHead=0;swimlaneBody=0;fillColor=none;collapsible=0;dropTarget=0;points=[[0,0.5],[1,0.5]];portConstraint=eastwest;top=0;left=0;right=0;bottom=0;" parent="f9uIw9wc-rNyhUylqqAu-59" vertex="1">
          <mxGeometry y="150" width="180" height="30" as="geometry" />
        </mxCell>
        <mxCell id="74bKICHIjmPeZ6uD2Ho_-37" value="" style="shape=partialRectangle;connectable=0;fillColor=none;top=0;left=0;bottom=0;right=0;editable=1;overflow=hidden;whiteSpace=wrap;html=1;" parent="74bKICHIjmPeZ6uD2Ho_-36" vertex="1">
          <mxGeometry width="30" height="30" as="geometry">
            <mxRectangle width="30" height="30" as="alternateBounds" />
          </mxGeometry>
        </mxCell>
        <mxCell id="74bKICHIjmPeZ6uD2Ho_-38" value="gender" style="shape=partialRectangle;connectable=0;fillColor=none;top=0;left=0;bottom=0;right=0;align=left;spacingLeft=6;overflow=hidden;whiteSpace=wrap;html=1;" parent="74bKICHIjmPeZ6uD2Ho_-36" vertex="1">
          <mxGeometry x="30" width="150" height="30" as="geometry">
            <mxRectangle width="150" height="30" as="alternateBounds" />
          </mxGeometry>
        </mxCell>
        <mxCell id="f9uIw9wc-rNyhUylqqAu-91" value="Borrow Books" style="shape=table;startSize=30;container=1;collapsible=1;childLayout=tableLayout;fixedRows=1;rowLines=0;fontStyle=1;align=center;resizeLast=1;html=1;" parent="1" vertex="1">
          <mxGeometry x="490" y="-1340" width="180" height="150" as="geometry" />
        </mxCell>
        <mxCell id="f9uIw9wc-rNyhUylqqAu-92" value="" style="shape=tableRow;horizontal=0;startSize=0;swimlaneHead=0;swimlaneBody=0;fillColor=none;collapsible=0;dropTarget=0;points=[[0,0.5],[1,0.5]];portConstraint=eastwest;top=0;left=0;right=0;bottom=1;" parent="f9uIw9wc-rNyhUylqqAu-91" vertex="1">
          <mxGeometry y="30" width="180" height="30" as="geometry" />
        </mxCell>
        <mxCell id="f9uIw9wc-rNyhUylqqAu-93" value="PK" style="shape=partialRectangle;connectable=0;fillColor=none;top=0;left=0;bottom=0;right=0;fontStyle=1;overflow=hidden;whiteSpace=wrap;html=1;" parent="f9uIw9wc-rNyhUylqqAu-92" vertex="1">
          <mxGeometry width="30" height="30" as="geometry">
            <mxRectangle width="30" height="30" as="alternateBounds" />
          </mxGeometry>
        </mxCell>
        <mxCell id="f9uIw9wc-rNyhUylqqAu-94" value="id" style="shape=partialRectangle;connectable=0;fillColor=none;top=0;left=0;bottom=0;right=0;align=left;spacingLeft=6;fontStyle=5;overflow=hidden;whiteSpace=wrap;html=1;" parent="f9uIw9wc-rNyhUylqqAu-92" vertex="1">
          <mxGeometry x="30" width="150" height="30" as="geometry">
            <mxRectangle width="150" height="30" as="alternateBounds" />
          </mxGeometry>
        </mxCell>
        <mxCell id="f9uIw9wc-rNyhUylqqAu-95" value="" style="shape=tableRow;horizontal=0;startSize=0;swimlaneHead=0;swimlaneBody=0;fillColor=none;collapsible=0;dropTarget=0;points=[[0,0.5],[1,0.5]];portConstraint=eastwest;top=0;left=0;right=0;bottom=0;" parent="f9uIw9wc-rNyhUylqqAu-91" vertex="1">
          <mxGeometry y="60" width="180" height="30" as="geometry" />
        </mxCell>
        <mxCell id="f9uIw9wc-rNyhUylqqAu-96" value="" style="shape=partialRectangle;connectable=0;fillColor=none;top=0;left=0;bottom=0;right=0;editable=1;overflow=hidden;whiteSpace=wrap;html=1;" parent="f9uIw9wc-rNyhUylqqAu-95" vertex="1">
          <mxGeometry width="30" height="30" as="geometry">
            <mxRectangle width="30" height="30" as="alternateBounds" />
          </mxGeometry>
        </mxCell>
        <mxCell id="f9uIw9wc-rNyhUylqqAu-97" value="borrow_date" style="shape=partialRectangle;connectable=0;fillColor=none;top=0;left=0;bottom=0;right=0;align=left;spacingLeft=6;overflow=hidden;whiteSpace=wrap;html=1;" parent="f9uIw9wc-rNyhUylqqAu-95" vertex="1">
          <mxGeometry x="30" width="150" height="30" as="geometry">
            <mxRectangle width="150" height="30" as="alternateBounds" />
          </mxGeometry>
        </mxCell>
        <mxCell id="f9uIw9wc-rNyhUylqqAu-101" value="" style="shape=tableRow;horizontal=0;startSize=0;swimlaneHead=0;swimlaneBody=0;fillColor=none;collapsible=0;dropTarget=0;points=[[0,0.5],[1,0.5]];portConstraint=eastwest;top=0;left=0;right=0;bottom=0;" parent="f9uIw9wc-rNyhUylqqAu-91" vertex="1">
          <mxGeometry y="90" width="180" height="30" as="geometry" />
        </mxCell>
        <mxCell id="f9uIw9wc-rNyhUylqqAu-102" value="FK" style="shape=partialRectangle;connectable=0;fillColor=none;top=0;left=0;bottom=0;right=0;editable=1;overflow=hidden;whiteSpace=wrap;html=1;" parent="f9uIw9wc-rNyhUylqqAu-101" vertex="1">
          <mxGeometry width="30" height="30" as="geometry">
            <mxRectangle width="30" height="30" as="alternateBounds" />
          </mxGeometry>
        </mxCell>
        <mxCell id="f9uIw9wc-rNyhUylqqAu-103" value="visitor_id" style="shape=partialRectangle;connectable=0;fillColor=none;top=0;left=0;bottom=0;right=0;align=left;spacingLeft=6;overflow=hidden;whiteSpace=wrap;html=1;" parent="f9uIw9wc-rNyhUylqqAu-101" vertex="1">
          <mxGeometry x="30" width="150" height="30" as="geometry">
            <mxRectangle width="150" height="30" as="alternateBounds" />
          </mxGeometry>
        </mxCell>
        <mxCell id="skhSZnjLNrDtPyHKeu3_-29" value="" style="shape=tableRow;horizontal=0;startSize=0;swimlaneHead=0;swimlaneBody=0;fillColor=none;collapsible=0;dropTarget=0;points=[[0,0.5],[1,0.5]];portConstraint=eastwest;top=0;left=0;right=0;bottom=0;" parent="f9uIw9wc-rNyhUylqqAu-91" vertex="1">
          <mxGeometry y="120" width="180" height="30" as="geometry" />
        </mxCell>
        <mxCell id="skhSZnjLNrDtPyHKeu3_-30" value="" style="shape=partialRectangle;connectable=0;fillColor=none;top=0;left=0;bottom=0;right=0;editable=1;overflow=hidden;whiteSpace=wrap;html=1;" parent="skhSZnjLNrDtPyHKeu3_-29" vertex="1">
          <mxGeometry width="30" height="30" as="geometry">
            <mxRectangle width="30" height="30" as="alternateBounds" />
          </mxGeometry>
        </mxCell>
        <mxCell id="skhSZnjLNrDtPyHKeu3_-31" value="due_date" style="shape=partialRectangle;connectable=0;fillColor=none;top=0;left=0;bottom=0;right=0;align=left;spacingLeft=6;overflow=hidden;whiteSpace=wrap;html=1;" parent="skhSZnjLNrDtPyHKeu3_-29" vertex="1">
          <mxGeometry x="30" width="150" height="30" as="geometry">
            <mxRectangle width="150" height="30" as="alternateBounds" />
          </mxGeometry>
        </mxCell>
        <mxCell id="4XEFQd1BnH6duvxT0j51-20" value="" style="edgeStyle=entityRelationEdgeStyle;fontSize=12;html=1;endArrow=ERoneToMany;rounded=0;" parent="1" source="f9uIw9wc-rNyhUylqqAu-59" target="f9uIw9wc-rNyhUylqqAu-91" edge="1">
          <mxGeometry width="100" height="100" relative="1" as="geometry">
            <mxPoint x="439" y="-770" as="sourcePoint" />
            <mxPoint x="539" y="-870" as="targetPoint" />
          </mxGeometry>
        </mxCell>
        <mxCell id="4XEFQd1BnH6duvxT0j51-4" value="Return Book" style="shape=table;startSize=30;container=1;collapsible=1;childLayout=tableLayout;fixedRows=1;rowLines=0;fontStyle=1;align=center;resizeLast=1;html=1;" parent="1" vertex="1">
          <mxGeometry x="490" y="-1150" width="180" height="150" as="geometry" />
        </mxCell>
        <mxCell id="4XEFQd1BnH6duvxT0j51-5" value="" style="shape=tableRow;horizontal=0;startSize=0;swimlaneHead=0;swimlaneBody=0;fillColor=none;collapsible=0;dropTarget=0;points=[[0,0.5],[1,0.5]];portConstraint=eastwest;top=0;left=0;right=0;bottom=1;" parent="4XEFQd1BnH6duvxT0j51-4" vertex="1">
          <mxGeometry y="30" width="180" height="30" as="geometry" />
        </mxCell>
        <mxCell id="4XEFQd1BnH6duvxT0j51-6" value="PK" style="shape=partialRectangle;connectable=0;fillColor=none;top=0;left=0;bottom=0;right=0;fontStyle=1;overflow=hidden;whiteSpace=wrap;html=1;" parent="4XEFQd1BnH6duvxT0j51-5" vertex="1">
          <mxGeometry width="30" height="30" as="geometry">
            <mxRectangle width="30" height="30" as="alternateBounds" />
          </mxGeometry>
        </mxCell>
        <mxCell id="4XEFQd1BnH6duvxT0j51-7" value="id" style="shape=partialRectangle;connectable=0;fillColor=none;top=0;left=0;bottom=0;right=0;align=left;spacingLeft=6;fontStyle=5;overflow=hidden;whiteSpace=wrap;html=1;" parent="4XEFQd1BnH6duvxT0j51-5" vertex="1">
          <mxGeometry x="30" width="150" height="30" as="geometry">
            <mxRectangle width="150" height="30" as="alternateBounds" />
          </mxGeometry>
        </mxCell>
        <mxCell id="skhSZnjLNrDtPyHKeu3_-1" value="" style="shape=tableRow;horizontal=0;startSize=0;swimlaneHead=0;swimlaneBody=0;fillColor=none;collapsible=0;dropTarget=0;points=[[0,0.5],[1,0.5]];portConstraint=eastwest;top=0;left=0;right=0;bottom=0;" parent="4XEFQd1BnH6duvxT0j51-4" vertex="1">
          <mxGeometry y="60" width="180" height="30" as="geometry" />
        </mxCell>
        <mxCell id="skhSZnjLNrDtPyHKeu3_-2" value="" style="shape=partialRectangle;connectable=0;fillColor=none;top=0;left=0;bottom=0;right=0;editable=1;overflow=hidden;whiteSpace=wrap;html=1;" parent="skhSZnjLNrDtPyHKeu3_-1" vertex="1">
          <mxGeometry width="30" height="30" as="geometry">
            <mxRectangle width="30" height="30" as="alternateBounds" />
          </mxGeometry>
        </mxCell>
        <mxCell id="skhSZnjLNrDtPyHKeu3_-3" value="return_date" style="shape=partialRectangle;connectable=0;fillColor=none;top=0;left=0;bottom=0;right=0;align=left;spacingLeft=6;overflow=hidden;whiteSpace=wrap;html=1;" parent="skhSZnjLNrDtPyHKeu3_-1" vertex="1">
          <mxGeometry x="30" width="150" height="30" as="geometry">
            <mxRectangle width="150" height="30" as="alternateBounds" />
          </mxGeometry>
        </mxCell>
        <mxCell id="56AAxWMqqsvW7jfmM_Hw-26" value="" style="shape=tableRow;horizontal=0;startSize=0;swimlaneHead=0;swimlaneBody=0;fillColor=none;collapsible=0;dropTarget=0;points=[[0,0.5],[1,0.5]];portConstraint=eastwest;top=0;left=0;right=0;bottom=0;" parent="4XEFQd1BnH6duvxT0j51-4" vertex="1">
          <mxGeometry y="90" width="180" height="30" as="geometry" />
        </mxCell>
        <mxCell id="56AAxWMqqsvW7jfmM_Hw-27" value="FK" style="shape=partialRectangle;connectable=0;fillColor=none;top=0;left=0;bottom=0;right=0;editable=1;overflow=hidden;whiteSpace=wrap;html=1;" parent="56AAxWMqqsvW7jfmM_Hw-26" vertex="1">
          <mxGeometry width="30" height="30" as="geometry">
            <mxRectangle width="30" height="30" as="alternateBounds" />
          </mxGeometry>
        </mxCell>
        <mxCell id="56AAxWMqqsvW7jfmM_Hw-28" value="visitor_id" style="shape=partialRectangle;connectable=0;fillColor=none;top=0;left=0;bottom=0;right=0;align=left;spacingLeft=6;overflow=hidden;whiteSpace=wrap;html=1;" parent="56AAxWMqqsvW7jfmM_Hw-26" vertex="1">
          <mxGeometry x="30" width="150" height="30" as="geometry">
            <mxRectangle width="150" height="30" as="alternateBounds" />
          </mxGeometry>
        </mxCell>
        <mxCell id="lHFqp4EZ8-GIdrpmEtmD-3" value="" style="shape=tableRow;horizontal=0;startSize=0;swimlaneHead=0;swimlaneBody=0;fillColor=none;collapsible=0;dropTarget=0;points=[[0,0.5],[1,0.5]];portConstraint=eastwest;top=0;left=0;right=0;bottom=0;" parent="4XEFQd1BnH6duvxT0j51-4" vertex="1">
          <mxGeometry y="120" width="180" height="30" as="geometry" />
        </mxCell>
        <mxCell id="lHFqp4EZ8-GIdrpmEtmD-4" value="FK" style="shape=partialRectangle;connectable=0;fillColor=none;top=0;left=0;bottom=0;right=0;editable=1;overflow=hidden;whiteSpace=wrap;html=1;" parent="lHFqp4EZ8-GIdrpmEtmD-3" vertex="1">
          <mxGeometry width="30" height="30" as="geometry">
            <mxRectangle width="30" height="30" as="alternateBounds" />
          </mxGeometry>
        </mxCell>
        <mxCell id="lHFqp4EZ8-GIdrpmEtmD-5" value="borrow_id" style="shape=partialRectangle;connectable=0;fillColor=none;top=0;left=0;bottom=0;right=0;align=left;spacingLeft=6;overflow=hidden;whiteSpace=wrap;html=1;" parent="lHFqp4EZ8-GIdrpmEtmD-3" vertex="1">
          <mxGeometry x="30" width="150" height="30" as="geometry">
            <mxRectangle width="150" height="30" as="alternateBounds" />
          </mxGeometry>
        </mxCell>
        <mxCell id="56AAxWMqqsvW7jfmM_Hw-1" value="Book Log" style="shape=table;startSize=30;container=1;collapsible=1;childLayout=tableLayout;fixedRows=1;rowLines=0;fontStyle=1;align=center;resizeLast=1;html=1;" parent="1" vertex="1">
          <mxGeometry x="760" y="-1220" width="180" height="120" as="geometry" />
        </mxCell>
        <mxCell id="56AAxWMqqsvW7jfmM_Hw-2" value="" style="shape=tableRow;horizontal=0;startSize=0;swimlaneHead=0;swimlaneBody=0;fillColor=none;collapsible=0;dropTarget=0;points=[[0,0.5],[1,0.5]];portConstraint=eastwest;top=0;left=0;right=0;bottom=1;" parent="56AAxWMqqsvW7jfmM_Hw-1" vertex="1">
          <mxGeometry y="30" width="180" height="30" as="geometry" />
        </mxCell>
        <mxCell id="56AAxWMqqsvW7jfmM_Hw-3" value="PK" style="shape=partialRectangle;connectable=0;fillColor=none;top=0;left=0;bottom=0;right=0;fontStyle=1;overflow=hidden;whiteSpace=wrap;html=1;" parent="56AAxWMqqsvW7jfmM_Hw-2" vertex="1">
          <mxGeometry width="30" height="30" as="geometry">
            <mxRectangle width="30" height="30" as="alternateBounds" />
          </mxGeometry>
        </mxCell>
        <mxCell id="56AAxWMqqsvW7jfmM_Hw-4" value="id" style="shape=partialRectangle;connectable=0;fillColor=none;top=0;left=0;bottom=0;right=0;align=left;spacingLeft=6;fontStyle=5;overflow=hidden;whiteSpace=wrap;html=1;" parent="56AAxWMqqsvW7jfmM_Hw-2" vertex="1">
          <mxGeometry x="30" width="150" height="30" as="geometry">
            <mxRectangle width="150" height="30" as="alternateBounds" />
          </mxGeometry>
        </mxCell>
        <mxCell id="56AAxWMqqsvW7jfmM_Hw-5" value="" style="shape=tableRow;horizontal=0;startSize=0;swimlaneHead=0;swimlaneBody=0;fillColor=none;collapsible=0;dropTarget=0;points=[[0,0.5],[1,0.5]];portConstraint=eastwest;top=0;left=0;right=0;bottom=0;" parent="56AAxWMqqsvW7jfmM_Hw-1" vertex="1">
          <mxGeometry y="60" width="180" height="30" as="geometry" />
        </mxCell>
        <mxCell id="56AAxWMqqsvW7jfmM_Hw-6" value="" style="shape=partialRectangle;connectable=0;fillColor=none;top=0;left=0;bottom=0;right=0;editable=1;overflow=hidden;whiteSpace=wrap;html=1;" parent="56AAxWMqqsvW7jfmM_Hw-5" vertex="1">
          <mxGeometry width="30" height="30" as="geometry">
            <mxRectangle width="30" height="30" as="alternateBounds" />
          </mxGeometry>
        </mxCell>
        <mxCell id="56AAxWMqqsvW7jfmM_Hw-7" value="penalty" style="shape=partialRectangle;connectable=0;fillColor=none;top=0;left=0;bottom=0;right=0;align=left;spacingLeft=6;overflow=hidden;whiteSpace=wrap;html=1;" parent="56AAxWMqqsvW7jfmM_Hw-5" vertex="1">
          <mxGeometry x="30" width="150" height="30" as="geometry">
            <mxRectangle width="150" height="30" as="alternateBounds" />
          </mxGeometry>
        </mxCell>
        <mxCell id="56AAxWMqqsvW7jfmM_Hw-11" value="" style="shape=tableRow;horizontal=0;startSize=0;swimlaneHead=0;swimlaneBody=0;fillColor=none;collapsible=0;dropTarget=0;points=[[0,0.5],[1,0.5]];portConstraint=eastwest;top=0;left=0;right=0;bottom=0;" parent="56AAxWMqqsvW7jfmM_Hw-1" vertex="1">
          <mxGeometry y="90" width="180" height="30" as="geometry" />
        </mxCell>
        <mxCell id="56AAxWMqqsvW7jfmM_Hw-12" value="FK" style="shape=partialRectangle;connectable=0;fillColor=none;top=0;left=0;bottom=0;right=0;editable=1;overflow=hidden;whiteSpace=wrap;html=1;" parent="56AAxWMqqsvW7jfmM_Hw-11" vertex="1">
          <mxGeometry width="30" height="30" as="geometry">
            <mxRectangle width="30" height="30" as="alternateBounds" />
          </mxGeometry>
        </mxCell>
        <mxCell id="56AAxWMqqsvW7jfmM_Hw-13" value="id_return_book" style="shape=partialRectangle;connectable=0;fillColor=none;top=0;left=0;bottom=0;right=0;align=left;spacingLeft=6;overflow=hidden;whiteSpace=wrap;html=1;" parent="56AAxWMqqsvW7jfmM_Hw-11" vertex="1">
          <mxGeometry x="30" width="150" height="30" as="geometry">
            <mxRectangle width="150" height="30" as="alternateBounds" />
          </mxGeometry>
        </mxCell>
        <mxCell id="56AAxWMqqsvW7jfmM_Hw-17" value="" style="edgeStyle=orthogonalEdgeStyle;fontSize=12;html=1;endArrow=ERmandOne;startArrow=ERmandOne;rounded=0;" parent="1" source="4XEFQd1BnH6duvxT0j51-4" target="56AAxWMqqsvW7jfmM_Hw-1" edge="1">
          <mxGeometry width="100" height="100" relative="1" as="geometry">
            <mxPoint x="510" y="-1060" as="sourcePoint" />
            <mxPoint x="610" y="-1160" as="targetPoint" />
          </mxGeometry>
        </mxCell>
        <mxCell id="56AAxWMqqsvW7jfmM_Hw-19" value="" style="edgeStyle=entityRelationEdgeStyle;fontSize=12;html=1;endArrow=ERoneToMany;rounded=0;exitX=1;exitY=0.5;exitDx=0;exitDy=0;" parent="1" source="f9uIw9wc-rNyhUylqqAu-66" target="4XEFQd1BnH6duvxT0j51-4" edge="1">
          <mxGeometry width="100" height="100" relative="1" as="geometry">
            <mxPoint x="250" y="-1050" as="sourcePoint" />
            <mxPoint x="350" y="-1150" as="targetPoint" />
          </mxGeometry>
        </mxCell>
        <mxCell id="74bKICHIjmPeZ6uD2Ho_-1" value="Librarian" style="shape=table;startSize=30;container=1;collapsible=1;childLayout=tableLayout;fixedRows=1;rowLines=0;fontStyle=1;align=center;resizeLast=1;html=1;" parent="1" vertex="1">
          <mxGeometry x="170" y="-1020" width="180" height="180" as="geometry" />
        </mxCell>
        <mxCell id="74bKICHIjmPeZ6uD2Ho_-2" value="" style="shape=tableRow;horizontal=0;startSize=0;swimlaneHead=0;swimlaneBody=0;fillColor=none;collapsible=0;dropTarget=0;points=[[0,0.5],[1,0.5]];portConstraint=eastwest;top=0;left=0;right=0;bottom=1;" parent="74bKICHIjmPeZ6uD2Ho_-1" vertex="1">
          <mxGeometry y="30" width="180" height="30" as="geometry" />
        </mxCell>
        <mxCell id="74bKICHIjmPeZ6uD2Ho_-3" value="PK" style="shape=partialRectangle;connectable=0;fillColor=none;top=0;left=0;bottom=0;right=0;fontStyle=1;overflow=hidden;whiteSpace=wrap;html=1;" parent="74bKICHIjmPeZ6uD2Ho_-2" vertex="1">
          <mxGeometry width="30" height="30" as="geometry">
            <mxRectangle width="30" height="30" as="alternateBounds" />
          </mxGeometry>
        </mxCell>
        <mxCell id="74bKICHIjmPeZ6uD2Ho_-4" value="id" style="shape=partialRectangle;connectable=0;fillColor=none;top=0;left=0;bottom=0;right=0;align=left;spacingLeft=6;fontStyle=5;overflow=hidden;whiteSpace=wrap;html=1;" parent="74bKICHIjmPeZ6uD2Ho_-2" vertex="1">
          <mxGeometry x="30" width="150" height="30" as="geometry">
            <mxRectangle width="150" height="30" as="alternateBounds" />
          </mxGeometry>
        </mxCell>
        <mxCell id="74bKICHIjmPeZ6uD2Ho_-5" value="" style="shape=tableRow;horizontal=0;startSize=0;swimlaneHead=0;swimlaneBody=0;fillColor=none;collapsible=0;dropTarget=0;points=[[0,0.5],[1,0.5]];portConstraint=eastwest;top=0;left=0;right=0;bottom=0;" parent="74bKICHIjmPeZ6uD2Ho_-1" vertex="1">
          <mxGeometry y="60" width="180" height="30" as="geometry" />
        </mxCell>
        <mxCell id="74bKICHIjmPeZ6uD2Ho_-6" value="" style="shape=partialRectangle;connectable=0;fillColor=none;top=0;left=0;bottom=0;right=0;editable=1;overflow=hidden;whiteSpace=wrap;html=1;" parent="74bKICHIjmPeZ6uD2Ho_-5" vertex="1">
          <mxGeometry width="30" height="30" as="geometry">
            <mxRectangle width="30" height="30" as="alternateBounds" />
          </mxGeometry>
        </mxCell>
        <mxCell id="74bKICHIjmPeZ6uD2Ho_-7" value="name" style="shape=partialRectangle;connectable=0;fillColor=none;top=0;left=0;bottom=0;right=0;align=left;spacingLeft=6;overflow=hidden;whiteSpace=wrap;html=1;" parent="74bKICHIjmPeZ6uD2Ho_-5" vertex="1">
          <mxGeometry x="30" width="150" height="30" as="geometry">
            <mxRectangle width="150" height="30" as="alternateBounds" />
          </mxGeometry>
        </mxCell>
        <mxCell id="74bKICHIjmPeZ6uD2Ho_-8" value="" style="shape=tableRow;horizontal=0;startSize=0;swimlaneHead=0;swimlaneBody=0;fillColor=none;collapsible=0;dropTarget=0;points=[[0,0.5],[1,0.5]];portConstraint=eastwest;top=0;left=0;right=0;bottom=0;" parent="74bKICHIjmPeZ6uD2Ho_-1" vertex="1">
          <mxGeometry y="90" width="180" height="30" as="geometry" />
        </mxCell>
        <mxCell id="74bKICHIjmPeZ6uD2Ho_-9" value="" style="shape=partialRectangle;connectable=0;fillColor=none;top=0;left=0;bottom=0;right=0;editable=1;overflow=hidden;whiteSpace=wrap;html=1;" parent="74bKICHIjmPeZ6uD2Ho_-8" vertex="1">
          <mxGeometry width="30" height="30" as="geometry">
            <mxRectangle width="30" height="30" as="alternateBounds" />
          </mxGeometry>
        </mxCell>
        <mxCell id="74bKICHIjmPeZ6uD2Ho_-10" value="address" style="shape=partialRectangle;connectable=0;fillColor=none;top=0;left=0;bottom=0;right=0;align=left;spacingLeft=6;overflow=hidden;whiteSpace=wrap;html=1;" parent="74bKICHIjmPeZ6uD2Ho_-8" vertex="1">
          <mxGeometry x="30" width="150" height="30" as="geometry">
            <mxRectangle width="150" height="30" as="alternateBounds" />
          </mxGeometry>
        </mxCell>
        <mxCell id="74bKICHIjmPeZ6uD2Ho_-11" value="" style="shape=tableRow;horizontal=0;startSize=0;swimlaneHead=0;swimlaneBody=0;fillColor=none;collapsible=0;dropTarget=0;points=[[0,0.5],[1,0.5]];portConstraint=eastwest;top=0;left=0;right=0;bottom=0;" parent="74bKICHIjmPeZ6uD2Ho_-1" vertex="1">
          <mxGeometry y="120" width="180" height="30" as="geometry" />
        </mxCell>
        <mxCell id="74bKICHIjmPeZ6uD2Ho_-12" value="" style="shape=partialRectangle;connectable=0;fillColor=none;top=0;left=0;bottom=0;right=0;editable=1;overflow=hidden;whiteSpace=wrap;html=1;" parent="74bKICHIjmPeZ6uD2Ho_-11" vertex="1">
          <mxGeometry width="30" height="30" as="geometry">
            <mxRectangle width="30" height="30" as="alternateBounds" />
          </mxGeometry>
        </mxCell>
        <mxCell id="74bKICHIjmPeZ6uD2Ho_-13" value="email" style="shape=partialRectangle;connectable=0;fillColor=none;top=0;left=0;bottom=0;right=0;align=left;spacingLeft=6;overflow=hidden;whiteSpace=wrap;html=1;" parent="74bKICHIjmPeZ6uD2Ho_-11" vertex="1">
          <mxGeometry x="30" width="150" height="30" as="geometry">
            <mxRectangle width="150" height="30" as="alternateBounds" />
          </mxGeometry>
        </mxCell>
        <mxCell id="74bKICHIjmPeZ6uD2Ho_-17" value="" style="shape=tableRow;horizontal=0;startSize=0;swimlaneHead=0;swimlaneBody=0;fillColor=none;collapsible=0;dropTarget=0;points=[[0,0.5],[1,0.5]];portConstraint=eastwest;top=0;left=0;right=0;bottom=0;" parent="74bKICHIjmPeZ6uD2Ho_-1" vertex="1">
          <mxGeometry y="150" width="180" height="30" as="geometry" />
        </mxCell>
        <mxCell id="74bKICHIjmPeZ6uD2Ho_-18" value="" style="shape=partialRectangle;connectable=0;fillColor=none;top=0;left=0;bottom=0;right=0;editable=1;overflow=hidden;whiteSpace=wrap;html=1;" parent="74bKICHIjmPeZ6uD2Ho_-17" vertex="1">
          <mxGeometry width="30" height="30" as="geometry">
            <mxRectangle width="30" height="30" as="alternateBounds" />
          </mxGeometry>
        </mxCell>
        <mxCell id="74bKICHIjmPeZ6uD2Ho_-19" value="gender" style="shape=partialRectangle;connectable=0;fillColor=none;top=0;left=0;bottom=0;right=0;align=left;spacingLeft=6;overflow=hidden;whiteSpace=wrap;html=1;" parent="74bKICHIjmPeZ6uD2Ho_-17" vertex="1">
          <mxGeometry x="30" width="150" height="30" as="geometry">
            <mxRectangle width="150" height="30" as="alternateBounds" />
          </mxGeometry>
        </mxCell>
        <mxCell id="74bKICHIjmPeZ6uD2Ho_-23" value="User" style="shape=table;startSize=30;container=1;collapsible=1;childLayout=tableLayout;fixedRows=1;rowLines=0;fontStyle=1;align=center;resizeLast=1;html=1;" parent="1" vertex="1">
          <mxGeometry x="-80" y="-1110" width="180" height="210" as="geometry" />
        </mxCell>
        <mxCell id="74bKICHIjmPeZ6uD2Ho_-24" value="" style="shape=tableRow;horizontal=0;startSize=0;swimlaneHead=0;swimlaneBody=0;fillColor=none;collapsible=0;dropTarget=0;points=[[0,0.5],[1,0.5]];portConstraint=eastwest;top=0;left=0;right=0;bottom=1;" parent="74bKICHIjmPeZ6uD2Ho_-23" vertex="1">
          <mxGeometry y="30" width="180" height="30" as="geometry" />
        </mxCell>
        <mxCell id="74bKICHIjmPeZ6uD2Ho_-25" value="PK" style="shape=partialRectangle;connectable=0;fillColor=none;top=0;left=0;bottom=0;right=0;fontStyle=1;overflow=hidden;whiteSpace=wrap;html=1;" parent="74bKICHIjmPeZ6uD2Ho_-24" vertex="1">
          <mxGeometry width="30" height="30" as="geometry">
            <mxRectangle width="30" height="30" as="alternateBounds" />
          </mxGeometry>
        </mxCell>
        <mxCell id="74bKICHIjmPeZ6uD2Ho_-26" value="id" style="shape=partialRectangle;connectable=0;fillColor=none;top=0;left=0;bottom=0;right=0;align=left;spacingLeft=6;fontStyle=5;overflow=hidden;whiteSpace=wrap;html=1;" parent="74bKICHIjmPeZ6uD2Ho_-24" vertex="1">
          <mxGeometry x="30" width="150" height="30" as="geometry">
            <mxRectangle width="150" height="30" as="alternateBounds" />
          </mxGeometry>
        </mxCell>
        <mxCell id="74bKICHIjmPeZ6uD2Ho_-27" value="" style="shape=tableRow;horizontal=0;startSize=0;swimlaneHead=0;swimlaneBody=0;fillColor=none;collapsible=0;dropTarget=0;points=[[0,0.5],[1,0.5]];portConstraint=eastwest;top=0;left=0;right=0;bottom=0;" parent="74bKICHIjmPeZ6uD2Ho_-23" vertex="1">
          <mxGeometry y="60" width="180" height="30" as="geometry" />
        </mxCell>
        <mxCell id="74bKICHIjmPeZ6uD2Ho_-28" value="" style="shape=partialRectangle;connectable=0;fillColor=none;top=0;left=0;bottom=0;right=0;editable=1;overflow=hidden;whiteSpace=wrap;html=1;" parent="74bKICHIjmPeZ6uD2Ho_-27" vertex="1">
          <mxGeometry width="30" height="30" as="geometry">
            <mxRectangle width="30" height="30" as="alternateBounds" />
          </mxGeometry>
        </mxCell>
        <mxCell id="74bKICHIjmPeZ6uD2Ho_-29" value="email" style="shape=partialRectangle;connectable=0;fillColor=none;top=0;left=0;bottom=0;right=0;align=left;spacingLeft=6;overflow=hidden;whiteSpace=wrap;html=1;" parent="74bKICHIjmPeZ6uD2Ho_-27" vertex="1">
          <mxGeometry x="30" width="150" height="30" as="geometry">
            <mxRectangle width="150" height="30" as="alternateBounds" />
          </mxGeometry>
        </mxCell>
        <mxCell id="74bKICHIjmPeZ6uD2Ho_-30" value="" style="shape=tableRow;horizontal=0;startSize=0;swimlaneHead=0;swimlaneBody=0;fillColor=none;collapsible=0;dropTarget=0;points=[[0,0.5],[1,0.5]];portConstraint=eastwest;top=0;left=0;right=0;bottom=0;" parent="74bKICHIjmPeZ6uD2Ho_-23" vertex="1">
          <mxGeometry y="90" width="180" height="30" as="geometry" />
        </mxCell>
        <mxCell id="74bKICHIjmPeZ6uD2Ho_-31" value="" style="shape=partialRectangle;connectable=0;fillColor=none;top=0;left=0;bottom=0;right=0;editable=1;overflow=hidden;whiteSpace=wrap;html=1;" parent="74bKICHIjmPeZ6uD2Ho_-30" vertex="1">
          <mxGeometry width="30" height="30" as="geometry">
            <mxRectangle width="30" height="30" as="alternateBounds" />
          </mxGeometry>
        </mxCell>
        <mxCell id="74bKICHIjmPeZ6uD2Ho_-32" value="password" style="shape=partialRectangle;connectable=0;fillColor=none;top=0;left=0;bottom=0;right=0;align=left;spacingLeft=6;overflow=hidden;whiteSpace=wrap;html=1;" parent="74bKICHIjmPeZ6uD2Ho_-30" vertex="1">
          <mxGeometry x="30" width="150" height="30" as="geometry">
            <mxRectangle width="150" height="30" as="alternateBounds" />
          </mxGeometry>
        </mxCell>
        <mxCell id="74bKICHIjmPeZ6uD2Ho_-33" value="" style="shape=tableRow;horizontal=0;startSize=0;swimlaneHead=0;swimlaneBody=0;fillColor=none;collapsible=0;dropTarget=0;points=[[0,0.5],[1,0.5]];portConstraint=eastwest;top=0;left=0;right=0;bottom=0;" parent="74bKICHIjmPeZ6uD2Ho_-23" vertex="1">
          <mxGeometry y="120" width="180" height="30" as="geometry" />
        </mxCell>
        <mxCell id="74bKICHIjmPeZ6uD2Ho_-34" value="" style="shape=partialRectangle;connectable=0;fillColor=none;top=0;left=0;bottom=0;right=0;editable=1;overflow=hidden;whiteSpace=wrap;html=1;" parent="74bKICHIjmPeZ6uD2Ho_-33" vertex="1">
          <mxGeometry width="30" height="30" as="geometry">
            <mxRectangle width="30" height="30" as="alternateBounds" />
          </mxGeometry>
        </mxCell>
        <mxCell id="74bKICHIjmPeZ6uD2Ho_-35" value="token" style="shape=partialRectangle;connectable=0;fillColor=none;top=0;left=0;bottom=0;right=0;align=left;spacingLeft=6;overflow=hidden;whiteSpace=wrap;html=1;" parent="74bKICHIjmPeZ6uD2Ho_-33" vertex="1">
          <mxGeometry x="30" width="150" height="30" as="geometry">
            <mxRectangle width="150" height="30" as="alternateBounds" />
          </mxGeometry>
        </mxCell>
        <mxCell id="lHFqp4EZ8-GIdrpmEtmD-21" value="" style="shape=tableRow;horizontal=0;startSize=0;swimlaneHead=0;swimlaneBody=0;fillColor=none;collapsible=0;dropTarget=0;points=[[0,0.5],[1,0.5]];portConstraint=eastwest;top=0;left=0;right=0;bottom=0;" parent="74bKICHIjmPeZ6uD2Ho_-23" vertex="1">
          <mxGeometry y="150" width="180" height="30" as="geometry" />
        </mxCell>
        <mxCell id="lHFqp4EZ8-GIdrpmEtmD-22" value="FK" style="shape=partialRectangle;connectable=0;fillColor=none;top=0;left=0;bottom=0;right=0;editable=1;overflow=hidden;whiteSpace=wrap;html=1;" parent="lHFqp4EZ8-GIdrpmEtmD-21" vertex="1">
          <mxGeometry width="30" height="30" as="geometry">
            <mxRectangle width="30" height="30" as="alternateBounds" />
          </mxGeometry>
        </mxCell>
        <mxCell id="lHFqp4EZ8-GIdrpmEtmD-23" value="visitor_id" style="shape=partialRectangle;connectable=0;fillColor=none;top=0;left=0;bottom=0;right=0;align=left;spacingLeft=6;overflow=hidden;whiteSpace=wrap;html=1;" parent="lHFqp4EZ8-GIdrpmEtmD-21" vertex="1">
          <mxGeometry x="30" width="150" height="30" as="geometry">
            <mxRectangle width="150" height="30" as="alternateBounds" />
          </mxGeometry>
        </mxCell>
        <mxCell id="lHFqp4EZ8-GIdrpmEtmD-27" value="" style="shape=tableRow;horizontal=0;startSize=0;swimlaneHead=0;swimlaneBody=0;fillColor=none;collapsible=0;dropTarget=0;points=[[0,0.5],[1,0.5]];portConstraint=eastwest;top=0;left=0;right=0;bottom=0;" parent="74bKICHIjmPeZ6uD2Ho_-23" vertex="1">
          <mxGeometry y="180" width="180" height="30" as="geometry" />
        </mxCell>
        <mxCell id="lHFqp4EZ8-GIdrpmEtmD-28" value="FK" style="shape=partialRectangle;connectable=0;fillColor=none;top=0;left=0;bottom=0;right=0;editable=1;overflow=hidden;whiteSpace=wrap;html=1;" parent="lHFqp4EZ8-GIdrpmEtmD-27" vertex="1">
          <mxGeometry width="30" height="30" as="geometry">
            <mxRectangle width="30" height="30" as="alternateBounds" />
          </mxGeometry>
        </mxCell>
        <mxCell id="lHFqp4EZ8-GIdrpmEtmD-29" value="librarian_id" style="shape=partialRectangle;connectable=0;fillColor=none;top=0;left=0;bottom=0;right=0;align=left;spacingLeft=6;overflow=hidden;whiteSpace=wrap;html=1;" parent="lHFqp4EZ8-GIdrpmEtmD-27" vertex="1">
          <mxGeometry x="30" width="150" height="30" as="geometry">
            <mxRectangle width="150" height="30" as="alternateBounds" />
          </mxGeometry>
        </mxCell>
        <mxCell id="74bKICHIjmPeZ6uD2Ho_-41" value="" style="edgeStyle=entityRelationEdgeStyle;fontSize=12;html=1;endArrow=ERmandOne;startArrow=ERmandOne;rounded=0;entryX=-0.009;entryY=0.27;entryDx=0;entryDy=0;entryPerimeter=0;" parent="1" source="74bKICHIjmPeZ6uD2Ho_-27" target="f9uIw9wc-rNyhUylqqAu-69" edge="1">
          <mxGeometry width="100" height="100" relative="1" as="geometry">
            <mxPoint x="20" y="-993" as="sourcePoint" />
            <mxPoint x="490" y="-980" as="targetPoint" />
          </mxGeometry>
        </mxCell>
        <mxCell id="74bKICHIjmPeZ6uD2Ho_-42" value="" style="edgeStyle=entityRelationEdgeStyle;fontSize=12;html=1;endArrow=ERmandOne;startArrow=ERmandOne;rounded=0;entryX=0;entryY=0.5;entryDx=0;entryDy=0;exitX=1;exitY=0.5;exitDx=0;exitDy=0;" parent="1" source="74bKICHIjmPeZ6uD2Ho_-27" target="74bKICHIjmPeZ6uD2Ho_-11" edge="1">
          <mxGeometry width="100" height="100" relative="1" as="geometry">
            <mxPoint x="20" y="-990" as="sourcePoint" />
            <mxPoint x="178" y="-1102" as="targetPoint" />
          </mxGeometry>
        </mxCell>
        <mxCell id="74bKICHIjmPeZ6uD2Ho_-44" value="" style="edgeStyle=entityRelationEdgeStyle;fontSize=12;html=1;endArrow=ERoneToMany;rounded=0;entryX=0.005;entryY=0.299;entryDx=0;entryDy=0;entryPerimeter=0;" parent="1" source="74bKICHIjmPeZ6uD2Ho_-11" target="f9uIw9wc-rNyhUylqqAu-14" edge="1">
          <mxGeometry width="100" height="100" relative="1" as="geometry">
            <mxPoint x="260" y="-610" as="sourcePoint" />
            <mxPoint x="360" y="-710" as="targetPoint" />
            <Array as="points">
              <mxPoint x="371" y="-790" />
            </Array>
          </mxGeometry>
        </mxCell>
        <mxCell id="zNEizIx0v2_nYi2o-jqY-15" value="List Book" style="shape=table;startSize=30;container=1;collapsible=1;childLayout=tableLayout;fixedRows=1;rowLines=0;fontStyle=1;align=center;resizeLast=1;html=1;" parent="1" vertex="1">
          <mxGeometry x="760" y="-960" width="180" height="150" as="geometry" />
        </mxCell>
        <mxCell id="zNEizIx0v2_nYi2o-jqY-16" value="" style="shape=tableRow;horizontal=0;startSize=0;swimlaneHead=0;swimlaneBody=0;fillColor=none;collapsible=0;dropTarget=0;points=[[0,0.5],[1,0.5]];portConstraint=eastwest;top=0;left=0;right=0;bottom=1;" parent="zNEizIx0v2_nYi2o-jqY-15" vertex="1">
          <mxGeometry y="30" width="180" height="30" as="geometry" />
        </mxCell>
        <mxCell id="zNEizIx0v2_nYi2o-jqY-17" value="PK" style="shape=partialRectangle;connectable=0;fillColor=none;top=0;left=0;bottom=0;right=0;fontStyle=1;overflow=hidden;whiteSpace=wrap;html=1;" parent="zNEizIx0v2_nYi2o-jqY-16" vertex="1">
          <mxGeometry width="30" height="30" as="geometry">
            <mxRectangle width="30" height="30" as="alternateBounds" />
          </mxGeometry>
        </mxCell>
        <mxCell id="zNEizIx0v2_nYi2o-jqY-18" value="id" style="shape=partialRectangle;connectable=0;fillColor=none;top=0;left=0;bottom=0;right=0;align=left;spacingLeft=6;fontStyle=5;overflow=hidden;whiteSpace=wrap;html=1;" parent="zNEizIx0v2_nYi2o-jqY-16" vertex="1">
          <mxGeometry x="30" width="150" height="30" as="geometry">
            <mxRectangle width="150" height="30" as="alternateBounds" />
          </mxGeometry>
        </mxCell>
        <mxCell id="zNEizIx0v2_nYi2o-jqY-19" value="" style="shape=tableRow;horizontal=0;startSize=0;swimlaneHead=0;swimlaneBody=0;fillColor=none;collapsible=0;dropTarget=0;points=[[0,0.5],[1,0.5]];portConstraint=eastwest;top=0;left=0;right=0;bottom=0;" parent="zNEizIx0v2_nYi2o-jqY-15" vertex="1">
          <mxGeometry y="60" width="180" height="30" as="geometry" />
        </mxCell>
        <mxCell id="zNEizIx0v2_nYi2o-jqY-20" value="FK" style="shape=partialRectangle;connectable=0;fillColor=none;top=0;left=0;bottom=0;right=0;editable=1;overflow=hidden;whiteSpace=wrap;html=1;" parent="zNEizIx0v2_nYi2o-jqY-19" vertex="1">
          <mxGeometry width="30" height="30" as="geometry">
            <mxRectangle width="30" height="30" as="alternateBounds" />
          </mxGeometry>
        </mxCell>
        <mxCell id="zNEizIx0v2_nYi2o-jqY-21" value="book_id" style="shape=partialRectangle;connectable=0;fillColor=none;top=0;left=0;bottom=0;right=0;align=left;spacingLeft=6;overflow=hidden;whiteSpace=wrap;html=1;" parent="zNEizIx0v2_nYi2o-jqY-19" vertex="1">
          <mxGeometry x="30" width="150" height="30" as="geometry">
            <mxRectangle width="150" height="30" as="alternateBounds" />
          </mxGeometry>
        </mxCell>
        <mxCell id="zNEizIx0v2_nYi2o-jqY-22" value="" style="shape=tableRow;horizontal=0;startSize=0;swimlaneHead=0;swimlaneBody=0;fillColor=none;collapsible=0;dropTarget=0;points=[[0,0.5],[1,0.5]];portConstraint=eastwest;top=0;left=0;right=0;bottom=0;" parent="zNEizIx0v2_nYi2o-jqY-15" vertex="1">
          <mxGeometry y="90" width="180" height="30" as="geometry" />
        </mxCell>
        <mxCell id="zNEizIx0v2_nYi2o-jqY-23" value="FK" style="shape=partialRectangle;connectable=0;fillColor=none;top=0;left=0;bottom=0;right=0;editable=1;overflow=hidden;whiteSpace=wrap;html=1;" parent="zNEizIx0v2_nYi2o-jqY-22" vertex="1">
          <mxGeometry width="30" height="30" as="geometry">
            <mxRectangle width="30" height="30" as="alternateBounds" />
          </mxGeometry>
        </mxCell>
        <mxCell id="zNEizIx0v2_nYi2o-jqY-24" value="borrow_id" style="shape=partialRectangle;connectable=0;fillColor=none;top=0;left=0;bottom=0;right=0;align=left;spacingLeft=6;overflow=hidden;whiteSpace=wrap;html=1;" parent="zNEizIx0v2_nYi2o-jqY-22" vertex="1">
          <mxGeometry x="30" width="150" height="30" as="geometry">
            <mxRectangle width="150" height="30" as="alternateBounds" />
          </mxGeometry>
        </mxCell>
        <mxCell id="zNEizIx0v2_nYi2o-jqY-25" value="" style="shape=tableRow;horizontal=0;startSize=0;swimlaneHead=0;swimlaneBody=0;fillColor=none;collapsible=0;dropTarget=0;points=[[0,0.5],[1,0.5]];portConstraint=eastwest;top=0;left=0;right=0;bottom=0;" parent="zNEizIx0v2_nYi2o-jqY-15" vertex="1">
          <mxGeometry y="120" width="180" height="30" as="geometry" />
        </mxCell>
        <mxCell id="zNEizIx0v2_nYi2o-jqY-26" value="" style="shape=partialRectangle;connectable=0;fillColor=none;top=0;left=0;bottom=0;right=0;editable=1;overflow=hidden;whiteSpace=wrap;html=1;" parent="zNEizIx0v2_nYi2o-jqY-25" vertex="1">
          <mxGeometry width="30" height="30" as="geometry">
            <mxRectangle width="30" height="30" as="alternateBounds" />
          </mxGeometry>
        </mxCell>
        <mxCell id="zNEizIx0v2_nYi2o-jqY-27" value="status" style="shape=partialRectangle;connectable=0;fillColor=none;top=0;left=0;bottom=0;right=0;align=left;spacingLeft=6;overflow=hidden;whiteSpace=wrap;html=1;" parent="zNEizIx0v2_nYi2o-jqY-25" vertex="1">
          <mxGeometry x="30" width="150" height="30" as="geometry">
            <mxRectangle width="150" height="30" as="alternateBounds" />
          </mxGeometry>
        </mxCell>
        <mxCell id="zNEizIx0v2_nYi2o-jqY-28" value="" style="edgeStyle=entityRelationEdgeStyle;fontSize=12;html=1;endArrow=ERoneToMany;rounded=0;exitX=1;exitY=0.5;exitDx=0;exitDy=0;entryX=0;entryY=0.5;entryDx=0;entryDy=0;" parent="1" source="f9uIw9wc-rNyhUylqqAu-14" target="zNEizIx0v2_nYi2o-jqY-19" edge="1">
          <mxGeometry width="100" height="100" relative="1" as="geometry">
            <mxPoint x="710" y="-680" as="sourcePoint" />
            <mxPoint x="810" y="-780" as="targetPoint" />
          </mxGeometry>
        </mxCell>
        <mxCell id="zNEizIx0v2_nYi2o-jqY-29" value="" style="fontSize=12;html=1;endArrow=ERoneToMany;rounded=0;exitX=1;exitY=0.5;exitDx=0;exitDy=0;entryX=0;entryY=0.5;entryDx=0;entryDy=0;edgeStyle=orthogonalEdgeStyle;" parent="1" source="f9uIw9wc-rNyhUylqqAu-95" target="zNEizIx0v2_nYi2o-jqY-19" edge="1">
          <mxGeometry width="100" height="100" relative="1" as="geometry">
            <mxPoint x="662.7999999999997" y="-870" as="sourcePoint" />
            <mxPoint x="910" y="-786.77" as="targetPoint" />
            <Array as="points">
              <mxPoint x="700" y="-1265" />
              <mxPoint x="700" y="-875" />
            </Array>
          </mxGeometry>
        </mxCell>
        <mxCell id="lHFqp4EZ8-GIdrpmEtmD-2" value="" style="edgeStyle=orthogonalEdgeStyle;fontSize=12;html=1;endArrow=ERmandOne;startArrow=ERmandOne;strokeColor=default;rounded=0;curved=1;" parent="1" source="f9uIw9wc-rNyhUylqqAu-91" target="4XEFQd1BnH6duvxT0j51-4" edge="1">
          <mxGeometry width="100" height="100" relative="1" as="geometry">
            <mxPoint x="390" y="-970" as="sourcePoint" />
            <mxPoint x="580" y="-1200" as="targetPoint" />
          </mxGeometry>
        </mxCell>
      </root>
    </mxGraphModel>
  </diagram>
  <diagram id="G23Nx8Ymt3mFHgWWxzzl" name="Use Case Diagram">
    <mxGraphModel dx="1050" dy="581" grid="1" gridSize="10" guides="1" tooltips="1" connect="1" arrows="1" fold="1" page="1" pageScale="1" pageWidth="850" pageHeight="1100" math="0" shadow="0">
      <root>
        <mxCell id="0" />
        <mxCell id="1" parent="0" />
        <mxCell id="jXdLNk0h7Y8PJhH72H3R-1" value="" style="whiteSpace=wrap;html=1;aspect=fixed;" parent="1" vertex="1">
          <mxGeometry x="149" y="30" width="530" height="530" as="geometry" />
        </mxCell>
        <mxCell id="jXdLNk0h7Y8PJhH72H3R-2" style="edgeStyle=orthogonalEdgeStyle;rounded=0;orthogonalLoop=1;jettySize=auto;html=1;dashed=1;" parent="1" source="jXdLNk0h7Y8PJhH72H3R-3" target="jXdLNk0h7Y8PJhH72H3R-9" edge="1">
          <mxGeometry relative="1" as="geometry" />
        </mxCell>
        <mxCell id="jXdLNk0h7Y8PJhH72H3R-3" value="Login" style="ellipse;whiteSpace=wrap;html=1;" parent="1" vertex="1">
          <mxGeometry x="354" y="100" width="120" height="80" as="geometry" />
        </mxCell>
        <mxCell id="jXdLNk0h7Y8PJhH72H3R-4" value="Anggota" style="shape=umlActor;verticalLabelPosition=bottom;verticalAlign=top;html=1;outlineConnect=0;" parent="1" vertex="1">
          <mxGeometry x="40" y="200" width="30" height="60" as="geometry" />
        </mxCell>
        <mxCell id="jXdLNk0h7Y8PJhH72H3R-5" value="Librarian" style="shape=umlActor;verticalLabelPosition=bottom;verticalAlign=top;html=1;outlineConnect=0;" parent="1" vertex="1">
          <mxGeometry x="730" y="180" width="30" height="60" as="geometry" />
        </mxCell>
        <mxCell id="jXdLNk0h7Y8PJhH72H3R-6" value="&lt;b&gt;&lt;font style=&quot;font-size: 20px;&quot;&gt;Library INDIVARA&lt;/font&gt;&lt;/b&gt;" style="text;html=1;strokeColor=none;fillColor=none;align=center;verticalAlign=middle;whiteSpace=wrap;rounded=0;" parent="1" vertex="1">
          <mxGeometry x="384" y="50" width="60" height="30" as="geometry" />
        </mxCell>
        <mxCell id="jXdLNk0h7Y8PJhH72H3R-7" value="" style="endArrow=classic;html=1;rounded=0;" parent="1" source="jXdLNk0h7Y8PJhH72H3R-5" target="jXdLNk0h7Y8PJhH72H3R-3" edge="1">
          <mxGeometry width="50" height="50" relative="1" as="geometry">
            <mxPoint x="720" y="160" as="sourcePoint" />
            <mxPoint x="770" y="110" as="targetPoint" />
          </mxGeometry>
        </mxCell>
        <mxCell id="jXdLNk0h7Y8PJhH72H3R-8" value="" style="endArrow=classic;html=1;rounded=0;exitX=0.75;exitY=0.1;exitDx=0;exitDy=0;exitPerimeter=0;" parent="1" source="jXdLNk0h7Y8PJhH72H3R-4" target="jXdLNk0h7Y8PJhH72H3R-3" edge="1">
          <mxGeometry width="50" height="50" relative="1" as="geometry">
            <mxPoint x="60" y="180" as="sourcePoint" />
            <mxPoint x="110" y="130" as="targetPoint" />
          </mxGeometry>
        </mxCell>
        <mxCell id="jXdLNk0h7Y8PJhH72H3R-9" value="Logout" style="ellipse;whiteSpace=wrap;html=1;" parent="1" vertex="1">
          <mxGeometry x="354" y="470" width="120" height="80" as="geometry" />
        </mxCell>
        <mxCell id="jXdLNk0h7Y8PJhH72H3R-10" value="&amp;lt;include&amp;gt;" style="text;html=1;align=center;verticalAlign=middle;resizable=0;points=[];autosize=1;strokeColor=none;fillColor=none;rotation=90;fontStyle=1;fontSize=13;" parent="1" vertex="1">
          <mxGeometry x="385" y="280" width="80" height="30" as="geometry" />
        </mxCell>
        <mxCell id="jXdLNk0h7Y8PJhH72H3R-11" value="Borrow" style="ellipse;whiteSpace=wrap;html=1;" parent="1" vertex="1">
          <mxGeometry x="322" y="185" width="80" height="50" as="geometry" />
        </mxCell>
        <mxCell id="jXdLNk0h7Y8PJhH72H3R-12" value="Return" style="ellipse;whiteSpace=wrap;html=1;" parent="1" vertex="1">
          <mxGeometry x="323" y="250" width="80" height="55" as="geometry" />
        </mxCell>
        <mxCell id="jXdLNk0h7Y8PJhH72H3R-13" value="add book" style="ellipse;whiteSpace=wrap;html=1;" parent="1" vertex="1">
          <mxGeometry x="420" y="190" width="86" height="50" as="geometry" />
        </mxCell>
        <mxCell id="jXdLNk0h7Y8PJhH72H3R-14" value="edit book" style="ellipse;whiteSpace=wrap;html=1;" parent="1" vertex="1">
          <mxGeometry x="440" y="270" width="86" height="50" as="geometry" />
        </mxCell>
        <mxCell id="jXdLNk0h7Y8PJhH72H3R-15" value="delete" style="ellipse;whiteSpace=wrap;html=1;" parent="1" vertex="1">
          <mxGeometry x="440" y="350" width="86" height="50" as="geometry" />
        </mxCell>
        <mxCell id="jXdLNk0h7Y8PJhH72H3R-16" value="view book" style="ellipse;whiteSpace=wrap;html=1;" parent="1" vertex="1">
          <mxGeometry x="323" y="325" width="80" height="60" as="geometry" />
        </mxCell>
        <mxCell id="jXdLNk0h7Y8PJhH72H3R-17" value="" style="endArrow=classic;html=1;rounded=0;exitX=0.75;exitY=0.1;exitDx=0;exitDy=0;exitPerimeter=0;" parent="1" source="jXdLNk0h7Y8PJhH72H3R-4" target="jXdLNk0h7Y8PJhH72H3R-11" edge="1">
          <mxGeometry width="50" height="50" relative="1" as="geometry">
            <mxPoint x="73" y="216" as="sourcePoint" />
            <mxPoint x="366" y="161" as="targetPoint" />
          </mxGeometry>
        </mxCell>
        <mxCell id="jXdLNk0h7Y8PJhH72H3R-18" value="" style="endArrow=classic;html=1;rounded=0;exitX=0.75;exitY=0.1;exitDx=0;exitDy=0;exitPerimeter=0;entryX=0;entryY=0.5;entryDx=0;entryDy=0;" parent="1" source="jXdLNk0h7Y8PJhH72H3R-4" target="jXdLNk0h7Y8PJhH72H3R-12" edge="1">
          <mxGeometry width="50" height="50" relative="1" as="geometry">
            <mxPoint x="83" y="226" as="sourcePoint" />
            <mxPoint x="235.2365019523777" y="273.8968920683217" as="targetPoint" />
          </mxGeometry>
        </mxCell>
        <mxCell id="jXdLNk0h7Y8PJhH72H3R-19" value="" style="endArrow=classic;html=1;rounded=0;exitX=0.75;exitY=0.1;exitDx=0;exitDy=0;exitPerimeter=0;entryX=0;entryY=0.5;entryDx=0;entryDy=0;" parent="1" source="jXdLNk0h7Y8PJhH72H3R-4" target="jXdLNk0h7Y8PJhH72H3R-16" edge="1">
          <mxGeometry width="50" height="50" relative="1" as="geometry">
            <mxPoint x="73" y="216" as="sourcePoint" />
            <mxPoint x="340" y="288" as="targetPoint" />
          </mxGeometry>
        </mxCell>
        <mxCell id="jXdLNk0h7Y8PJhH72H3R-20" value="" style="endArrow=classic;html=1;rounded=0;exitX=0.5;exitY=0.5;exitDx=0;exitDy=0;exitPerimeter=0;entryX=1;entryY=0.5;entryDx=0;entryDy=0;" parent="1" source="jXdLNk0h7Y8PJhH72H3R-5" target="jXdLNk0h7Y8PJhH72H3R-13" edge="1">
          <mxGeometry width="50" height="50" relative="1" as="geometry">
            <mxPoint x="740" y="217" as="sourcePoint" />
            <mxPoint x="481" y="162" as="targetPoint" />
          </mxGeometry>
        </mxCell>
        <mxCell id="jXdLNk0h7Y8PJhH72H3R-21" value="" style="endArrow=classic;html=1;rounded=0;" parent="1" source="jXdLNk0h7Y8PJhH72H3R-5" target="jXdLNk0h7Y8PJhH72H3R-14" edge="1">
          <mxGeometry width="50" height="50" relative="1" as="geometry">
            <mxPoint x="750" y="227" as="sourcePoint" />
            <mxPoint x="491" y="172" as="targetPoint" />
          </mxGeometry>
        </mxCell>
        <mxCell id="jXdLNk0h7Y8PJhH72H3R-22" value="" style="endArrow=classic;html=1;rounded=0;" parent="1" source="jXdLNk0h7Y8PJhH72H3R-5" target="jXdLNk0h7Y8PJhH72H3R-15" edge="1">
          <mxGeometry width="50" height="50" relative="1" as="geometry">
            <mxPoint x="760" y="237" as="sourcePoint" />
            <mxPoint x="501" y="182" as="targetPoint" />
          </mxGeometry>
        </mxCell>
        <mxCell id="jXdLNk0h7Y8PJhH72H3R-23" value="search" style="ellipse;whiteSpace=wrap;html=1;" parent="1" vertex="1">
          <mxGeometry x="324" y="400" width="80" height="60" as="geometry" />
        </mxCell>
        <mxCell id="jXdLNk0h7Y8PJhH72H3R-24" value="" style="endArrow=classic;html=1;rounded=0;exitX=0.75;exitY=0.1;exitDx=0;exitDy=0;exitPerimeter=0;entryX=0;entryY=0.5;entryDx=0;entryDy=0;" parent="1" source="jXdLNk0h7Y8PJhH72H3R-4" target="jXdLNk0h7Y8PJhH72H3R-23" edge="1">
          <mxGeometry width="50" height="50" relative="1" as="geometry">
            <mxPoint x="73" y="216" as="sourcePoint" />
            <mxPoint x="340" y="365" as="targetPoint" />
          </mxGeometry>
        </mxCell>
        <mxCell id="jXdLNk0h7Y8PJhH72H3R-25" value="" style="endArrow=classic;html=1;rounded=0;exitX=0.75;exitY=0.1;exitDx=0;exitDy=0;exitPerimeter=0;entryX=0;entryY=0.5;entryDx=0;entryDy=0;" parent="1" source="jXdLNk0h7Y8PJhH72H3R-4" target="jXdLNk0h7Y8PJhH72H3R-9" edge="1">
          <mxGeometry width="50" height="50" relative="1" as="geometry">
            <mxPoint x="70" y="390" as="sourcePoint" />
            <mxPoint x="120" y="340" as="targetPoint" />
          </mxGeometry>
        </mxCell>
        <mxCell id="jXdLNk0h7Y8PJhH72H3R-26" value="" style="endArrow=classic;html=1;rounded=0;exitX=0.5;exitY=0.5;exitDx=0;exitDy=0;exitPerimeter=0;entryX=1;entryY=0.5;entryDx=0;entryDy=0;" parent="1" source="jXdLNk0h7Y8PJhH72H3R-5" target="jXdLNk0h7Y8PJhH72H3R-9" edge="1">
          <mxGeometry width="50" height="50" relative="1" as="geometry">
            <mxPoint x="780" y="380" as="sourcePoint" />
            <mxPoint x="830" y="330" as="targetPoint" />
          </mxGeometry>
        </mxCell>
      </root>
    </mxGraphModel>
  </diagram>
  <diagram id="liJJyLil4Pxt7tBg5L9R" name="Activity Diagram">
    <mxGraphModel dx="2333" dy="2391" grid="1" gridSize="10" guides="1" tooltips="1" connect="1" arrows="1" fold="1" page="1" pageScale="1" pageWidth="850" pageHeight="1100" math="0" shadow="0">
      <root>
        <mxCell id="0" />
        <mxCell id="1" parent="0" />
        <mxCell id="Y3pJVZtkwfNHuPZyGrr0-1" value="Login Anggota" style="swimlane;whiteSpace=wrap" parent="1" vertex="1">
          <mxGeometry x="60" y="-530" width="280" height="570" as="geometry" />
        </mxCell>
        <mxCell id="Y3pJVZtkwfNHuPZyGrr0-2" value="" style="ellipse;shape=startState;fillColor=#000000;strokeColor=#ff0000;" parent="Y3pJVZtkwfNHuPZyGrr0-1" vertex="1">
          <mxGeometry x="100" y="92" width="30" height="30" as="geometry" />
        </mxCell>
        <mxCell id="Y3pJVZtkwfNHuPZyGrr0-3" value="" style="edgeStyle=elbowEdgeStyle;elbow=horizontal;verticalAlign=bottom;endArrow=open;endSize=8;strokeColor=#FF0000;endFill=1;rounded=0" parent="Y3pJVZtkwfNHuPZyGrr0-1" source="Y3pJVZtkwfNHuPZyGrr0-2" target="Y3pJVZtkwfNHuPZyGrr0-5" edge="1">
          <mxGeometry x="100" y="40" as="geometry">
            <mxPoint x="115" y="110" as="targetPoint" />
          </mxGeometry>
        </mxCell>
        <mxCell id="Y3pJVZtkwfNHuPZyGrr0-4" style="edgeStyle=orthogonalEdgeStyle;rounded=0;orthogonalLoop=1;jettySize=auto;html=1;entryX=0.5;entryY=0;entryDx=0;entryDy=0;" parent="Y3pJVZtkwfNHuPZyGrr0-1" source="Y3pJVZtkwfNHuPZyGrr0-5" target="Y3pJVZtkwfNHuPZyGrr0-7" edge="1">
          <mxGeometry relative="1" as="geometry" />
        </mxCell>
        <mxCell id="Y3pJVZtkwfNHuPZyGrr0-5" value="Masukan email &#xa;&amp; password" style="" parent="Y3pJVZtkwfNHuPZyGrr0-1" vertex="1">
          <mxGeometry x="50" y="214" width="130" height="70" as="geometry" />
        </mxCell>
        <mxCell id="Y3pJVZtkwfNHuPZyGrr0-6" style="edgeStyle=orthogonalEdgeStyle;rounded=0;orthogonalLoop=1;jettySize=auto;html=1;entryX=0;entryY=0.5;entryDx=0;entryDy=0;" parent="Y3pJVZtkwfNHuPZyGrr0-1" source="Y3pJVZtkwfNHuPZyGrr0-7" target="Y3pJVZtkwfNHuPZyGrr0-5" edge="1">
          <mxGeometry relative="1" as="geometry">
            <Array as="points">
              <mxPoint x="30" y="394" />
              <mxPoint x="30" y="249" />
            </Array>
          </mxGeometry>
        </mxCell>
        <mxCell id="Y3pJVZtkwfNHuPZyGrr0-7" value="Validasi&lt;br&gt;Token" style="rhombus;whiteSpace=wrap;html=1;" parent="Y3pJVZtkwfNHuPZyGrr0-1" vertex="1">
          <mxGeometry x="75" y="354" width="80" height="80" as="geometry" />
        </mxCell>
        <mxCell id="Y3pJVZtkwfNHuPZyGrr0-8" value="No" style="text;html=1;align=center;verticalAlign=middle;resizable=0;points=[];autosize=1;strokeColor=none;fillColor=none;" parent="Y3pJVZtkwfNHuPZyGrr0-1" vertex="1">
          <mxGeometry x="25.5" y="312" width="40" height="30" as="geometry" />
        </mxCell>
        <mxCell id="Y3pJVZtkwfNHuPZyGrr0-9" value="Start" style="text;html=1;align=center;verticalAlign=middle;resizable=0;points=[];autosize=1;strokeColor=none;fillColor=none;fontStyle=1" parent="Y3pJVZtkwfNHuPZyGrr0-1" vertex="1">
          <mxGeometry x="90" y="62" width="50" height="30" as="geometry" />
        </mxCell>
        <mxCell id="Y3pJVZtkwfNHuPZyGrr0-10" value="Dasboard" style="swimlane;whiteSpace=wrap" parent="1" vertex="1">
          <mxGeometry x="340" y="-530" width="280" height="570" as="geometry" />
        </mxCell>
        <mxCell id="Y3pJVZtkwfNHuPZyGrr0-11" style="edgeStyle=orthogonalEdgeStyle;rounded=0;orthogonalLoop=1;jettySize=auto;html=1;entryX=0.5;entryY=0;entryDx=0;entryDy=0;" parent="Y3pJVZtkwfNHuPZyGrr0-10" source="Y3pJVZtkwfNHuPZyGrr0-12" target="Y3pJVZtkwfNHuPZyGrr0-14" edge="1">
          <mxGeometry relative="1" as="geometry" />
        </mxCell>
        <mxCell id="Y3pJVZtkwfNHuPZyGrr0-12" value="Masuk menu halaman&#xa;dasboard" style="" parent="Y3pJVZtkwfNHuPZyGrr0-10" vertex="1">
          <mxGeometry x="65.5" y="70" width="130" height="70" as="geometry" />
        </mxCell>
        <mxCell id="Y3pJVZtkwfNHuPZyGrr0-13" style="edgeStyle=orthogonalEdgeStyle;rounded=0;orthogonalLoop=1;jettySize=auto;html=1;entryX=0.5;entryY=0;entryDx=0;entryDy=0;" parent="Y3pJVZtkwfNHuPZyGrr0-10" source="Y3pJVZtkwfNHuPZyGrr0-14" target="Y3pJVZtkwfNHuPZyGrr0-15" edge="1">
          <mxGeometry relative="1" as="geometry" />
        </mxCell>
        <mxCell id="Y3pJVZtkwfNHuPZyGrr0-14" value="Search Buku" style="" parent="Y3pJVZtkwfNHuPZyGrr0-10" vertex="1">
          <mxGeometry x="65.5" y="215" width="130" height="70" as="geometry" />
        </mxCell>
        <mxCell id="Y3pJVZtkwfNHuPZyGrr0-15" value="View Buku" style="" parent="Y3pJVZtkwfNHuPZyGrr0-10" vertex="1">
          <mxGeometry x="65.5" y="337" width="130" height="70" as="geometry" />
        </mxCell>
        <mxCell id="Y3pJVZtkwfNHuPZyGrr0-16" value="Borrow Book" style="swimlane;whiteSpace=wrap" parent="1" vertex="1">
          <mxGeometry x="620" y="-530" width="415.5" height="570" as="geometry" />
        </mxCell>
        <mxCell id="Y3pJVZtkwfNHuPZyGrr0-17" style="edgeStyle=orthogonalEdgeStyle;rounded=0;orthogonalLoop=1;jettySize=auto;html=1;entryX=0.5;entryY=0;entryDx=0;entryDy=0;" parent="Y3pJVZtkwfNHuPZyGrr0-16" source="Y3pJVZtkwfNHuPZyGrr0-18" target="Y3pJVZtkwfNHuPZyGrr0-24" edge="1">
          <mxGeometry relative="1" as="geometry" />
        </mxCell>
        <mxCell id="Y3pJVZtkwfNHuPZyGrr0-18" value="Pinjam Buku" style="" parent="Y3pJVZtkwfNHuPZyGrr0-16" vertex="1">
          <mxGeometry x="75" y="62" width="130" height="70" as="geometry" />
        </mxCell>
        <mxCell id="Y3pJVZtkwfNHuPZyGrr0-19" style="edgeStyle=orthogonalEdgeStyle;rounded=0;orthogonalLoop=1;jettySize=auto;html=1;entryX=0.5;entryY=0;entryDx=0;entryDy=0;" parent="Y3pJVZtkwfNHuPZyGrr0-16" source="Y3pJVZtkwfNHuPZyGrr0-20" target="Y3pJVZtkwfNHuPZyGrr0-21" edge="1">
          <mxGeometry relative="1" as="geometry" />
        </mxCell>
        <mxCell id="Y3pJVZtkwfNHuPZyGrr0-20" value="Masukan data diri" style="" parent="Y3pJVZtkwfNHuPZyGrr0-16" vertex="1">
          <mxGeometry x="235.5" y="361" width="130" height="70" as="geometry" />
        </mxCell>
        <mxCell id="Y3pJVZtkwfNHuPZyGrr0-21" value="Tampil book report&#xa;peminjaman" style="" parent="Y3pJVZtkwfNHuPZyGrr0-16" vertex="1">
          <mxGeometry x="235.5" y="482" width="130" height="70" as="geometry" />
        </mxCell>
        <mxCell id="Y3pJVZtkwfNHuPZyGrr0-22" style="edgeStyle=orthogonalEdgeStyle;rounded=0;orthogonalLoop=1;jettySize=auto;html=1;" parent="Y3pJVZtkwfNHuPZyGrr0-16" source="Y3pJVZtkwfNHuPZyGrr0-24" target="Y3pJVZtkwfNHuPZyGrr0-20" edge="1">
          <mxGeometry relative="1" as="geometry" />
        </mxCell>
        <mxCell id="Y3pJVZtkwfNHuPZyGrr0-23" style="edgeStyle=orthogonalEdgeStyle;rounded=0;orthogonalLoop=1;jettySize=auto;html=1;entryX=0.5;entryY=0;entryDx=0;entryDy=0;" parent="Y3pJVZtkwfNHuPZyGrr0-16" source="Y3pJVZtkwfNHuPZyGrr0-24" target="Y3pJVZtkwfNHuPZyGrr0-27" edge="1">
          <mxGeometry relative="1" as="geometry" />
        </mxCell>
        <mxCell id="Y3pJVZtkwfNHuPZyGrr0-24" value="Stock Available&lt;br&gt;/ Not Available" style="rhombus;whiteSpace=wrap;html=1;" parent="Y3pJVZtkwfNHuPZyGrr0-16" vertex="1">
          <mxGeometry x="235.5" y="181" width="130" height="138" as="geometry" />
        </mxCell>
        <mxCell id="Y3pJVZtkwfNHuPZyGrr0-25" value="Not Available" style="text;html=1;align=center;verticalAlign=middle;resizable=0;points=[];autosize=1;strokeColor=none;fillColor=none;" parent="Y3pJVZtkwfNHuPZyGrr0-16" vertex="1">
          <mxGeometry x="125.5" y="222" width="90" height="30" as="geometry" />
        </mxCell>
        <mxCell id="Y3pJVZtkwfNHuPZyGrr0-26" value="Available" style="text;html=1;align=center;verticalAlign=middle;resizable=0;points=[];autosize=1;strokeColor=none;fillColor=none;" parent="Y3pJVZtkwfNHuPZyGrr0-16" vertex="1">
          <mxGeometry x="233.5" y="330" width="70" height="30" as="geometry" />
        </mxCell>
        <mxCell id="Y3pJVZtkwfNHuPZyGrr0-27" value="Masukan ke wishlist" style="" parent="Y3pJVZtkwfNHuPZyGrr0-16" vertex="1">
          <mxGeometry x="55.5" y="372" width="130" height="70" as="geometry" />
        </mxCell>
        <mxCell id="Y3pJVZtkwfNHuPZyGrr0-28" value="Logout" style="swimlane;whiteSpace=wrap" parent="1" vertex="1">
          <mxGeometry x="1035.5" y="-530" width="280" height="570" as="geometry" />
        </mxCell>
        <mxCell id="Y3pJVZtkwfNHuPZyGrr0-29" value="" style="ellipse;shape=endState;fillColor=#000000;strokeColor=#ff0000" parent="Y3pJVZtkwfNHuPZyGrr0-28" vertex="1">
          <mxGeometry x="130" y="521" width="30" height="30" as="geometry" />
        </mxCell>
        <mxCell id="Y3pJVZtkwfNHuPZyGrr0-30" style="edgeStyle=orthogonalEdgeStyle;rounded=0;orthogonalLoop=1;jettySize=auto;html=1;" parent="Y3pJVZtkwfNHuPZyGrr0-28" source="Y3pJVZtkwfNHuPZyGrr0-31" target="Y3pJVZtkwfNHuPZyGrr0-33" edge="1">
          <mxGeometry relative="1" as="geometry" />
        </mxCell>
        <mxCell id="Y3pJVZtkwfNHuPZyGrr0-31" value="Kembali ke menu halaman&#xa;dasboard" style="" parent="Y3pJVZtkwfNHuPZyGrr0-28" vertex="1">
          <mxGeometry x="62.5" y="82" width="165" height="98" as="geometry" />
        </mxCell>
        <mxCell id="Y3pJVZtkwfNHuPZyGrr0-32" style="edgeStyle=orthogonalEdgeStyle;rounded=0;orthogonalLoop=1;jettySize=auto;html=1;entryX=0.5;entryY=0;entryDx=0;entryDy=0;" parent="Y3pJVZtkwfNHuPZyGrr0-28" source="Y3pJVZtkwfNHuPZyGrr0-33" target="Y3pJVZtkwfNHuPZyGrr0-36" edge="1">
          <mxGeometry relative="1" as="geometry" />
        </mxCell>
        <mxCell id="Y3pJVZtkwfNHuPZyGrr0-33" value="Masuk menu logout" style="" parent="Y3pJVZtkwfNHuPZyGrr0-28" vertex="1">
          <mxGeometry x="62.5" y="228" width="165" height="98" as="geometry" />
        </mxCell>
        <mxCell id="Y3pJVZtkwfNHuPZyGrr0-34" style="edgeStyle=orthogonalEdgeStyle;rounded=0;orthogonalLoop=1;jettySize=auto;html=1;entryX=0;entryY=0.5;entryDx=0;entryDy=0;" parent="Y3pJVZtkwfNHuPZyGrr0-28" source="Y3pJVZtkwfNHuPZyGrr0-36" target="Y3pJVZtkwfNHuPZyGrr0-31" edge="1">
          <mxGeometry relative="1" as="geometry">
            <Array as="points">
              <mxPoint x="43" y="441" />
              <mxPoint x="43" y="131" />
            </Array>
          </mxGeometry>
        </mxCell>
        <mxCell id="Y3pJVZtkwfNHuPZyGrr0-35" style="edgeStyle=orthogonalEdgeStyle;rounded=0;orthogonalLoop=1;jettySize=auto;html=1;" parent="Y3pJVZtkwfNHuPZyGrr0-28" source="Y3pJVZtkwfNHuPZyGrr0-36" target="Y3pJVZtkwfNHuPZyGrr0-29" edge="1">
          <mxGeometry relative="1" as="geometry" />
        </mxCell>
        <mxCell id="Y3pJVZtkwfNHuPZyGrr0-36" value="validasi logout" style="rhombus;whiteSpace=wrap;html=1;" parent="Y3pJVZtkwfNHuPZyGrr0-28" vertex="1">
          <mxGeometry x="100" y="392" width="90" height="88" as="geometry" />
        </mxCell>
        <mxCell id="Y3pJVZtkwfNHuPZyGrr0-37" value="Finish" style="text;html=1;align=center;verticalAlign=middle;resizable=0;points=[];autosize=1;strokeColor=none;fillColor=none;fontStyle=1" parent="Y3pJVZtkwfNHuPZyGrr0-28" vertex="1">
          <mxGeometry x="170" y="521" width="60" height="30" as="geometry" />
        </mxCell>
        <mxCell id="Y3pJVZtkwfNHuPZyGrr0-38" style="edgeStyle=orthogonalEdgeStyle;rounded=0;orthogonalLoop=1;jettySize=auto;html=1;entryX=0;entryY=0.5;entryDx=0;entryDy=0;" parent="1" source="Y3pJVZtkwfNHuPZyGrr0-7" target="Y3pJVZtkwfNHuPZyGrr0-12" edge="1">
          <mxGeometry relative="1" as="geometry" />
        </mxCell>
        <mxCell id="Y3pJVZtkwfNHuPZyGrr0-39" style="edgeStyle=orthogonalEdgeStyle;rounded=0;orthogonalLoop=1;jettySize=auto;html=1;entryX=0;entryY=0.5;entryDx=0;entryDy=0;" parent="1" source="Y3pJVZtkwfNHuPZyGrr0-15" target="Y3pJVZtkwfNHuPZyGrr0-18" edge="1">
          <mxGeometry relative="1" as="geometry" />
        </mxCell>
        <mxCell id="Y3pJVZtkwfNHuPZyGrr0-40" style="edgeStyle=orthogonalEdgeStyle;rounded=0;orthogonalLoop=1;jettySize=auto;html=1;entryX=0;entryY=0.5;entryDx=0;entryDy=0;" parent="1" source="Y3pJVZtkwfNHuPZyGrr0-21" target="Y3pJVZtkwfNHuPZyGrr0-31" edge="1">
          <mxGeometry relative="1" as="geometry">
            <Array as="points">
              <mxPoint x="1015.5" y="-21" />
              <mxPoint x="1015.5" y="-399" />
            </Array>
          </mxGeometry>
        </mxCell>
        <mxCell id="Y3pJVZtkwfNHuPZyGrr0-41" style="edgeStyle=orthogonalEdgeStyle;rounded=0;orthogonalLoop=1;jettySize=auto;html=1;entryX=1;entryY=0.5;entryDx=0;entryDy=0;" parent="1" source="Y3pJVZtkwfNHuPZyGrr0-27" target="Y3pJVZtkwfNHuPZyGrr0-12" edge="1">
          <mxGeometry relative="1" as="geometry" />
        </mxCell>
        <mxCell id="Y3pJVZtkwfNHuPZyGrr0-42" value="Login Anggota" style="swimlane;whiteSpace=wrap" parent="1" vertex="1">
          <mxGeometry x="60" y="100" width="235" height="570" as="geometry" />
        </mxCell>
        <mxCell id="Y3pJVZtkwfNHuPZyGrr0-43" value="" style="ellipse;shape=startState;fillColor=#000000;strokeColor=#ff0000;" parent="Y3pJVZtkwfNHuPZyGrr0-42" vertex="1">
          <mxGeometry x="100" y="92" width="30" height="30" as="geometry" />
        </mxCell>
        <mxCell id="Y3pJVZtkwfNHuPZyGrr0-44" value="" style="edgeStyle=elbowEdgeStyle;elbow=horizontal;verticalAlign=bottom;endArrow=open;endSize=8;strokeColor=#FF0000;endFill=1;rounded=0" parent="Y3pJVZtkwfNHuPZyGrr0-42" source="Y3pJVZtkwfNHuPZyGrr0-43" target="Y3pJVZtkwfNHuPZyGrr0-46" edge="1">
          <mxGeometry x="100" y="40" as="geometry">
            <mxPoint x="115" y="110" as="targetPoint" />
          </mxGeometry>
        </mxCell>
        <mxCell id="Y3pJVZtkwfNHuPZyGrr0-45" style="edgeStyle=orthogonalEdgeStyle;rounded=0;orthogonalLoop=1;jettySize=auto;html=1;entryX=0.5;entryY=0;entryDx=0;entryDy=0;" parent="Y3pJVZtkwfNHuPZyGrr0-42" source="Y3pJVZtkwfNHuPZyGrr0-46" target="Y3pJVZtkwfNHuPZyGrr0-48" edge="1">
          <mxGeometry relative="1" as="geometry" />
        </mxCell>
        <mxCell id="Y3pJVZtkwfNHuPZyGrr0-46" value="Masukan email &#xa;&amp; password" style="" parent="Y3pJVZtkwfNHuPZyGrr0-42" vertex="1">
          <mxGeometry x="50" y="214" width="130" height="70" as="geometry" />
        </mxCell>
        <mxCell id="Y3pJVZtkwfNHuPZyGrr0-47" style="edgeStyle=orthogonalEdgeStyle;rounded=0;orthogonalLoop=1;jettySize=auto;html=1;entryX=0;entryY=0.5;entryDx=0;entryDy=0;" parent="Y3pJVZtkwfNHuPZyGrr0-42" source="Y3pJVZtkwfNHuPZyGrr0-48" target="Y3pJVZtkwfNHuPZyGrr0-46" edge="1">
          <mxGeometry relative="1" as="geometry">
            <Array as="points">
              <mxPoint x="30" y="394" />
              <mxPoint x="30" y="249" />
            </Array>
          </mxGeometry>
        </mxCell>
        <mxCell id="Y3pJVZtkwfNHuPZyGrr0-48" value="Validasi&lt;br&gt;Token" style="rhombus;whiteSpace=wrap;html=1;" parent="Y3pJVZtkwfNHuPZyGrr0-42" vertex="1">
          <mxGeometry x="75" y="354" width="80" height="80" as="geometry" />
        </mxCell>
        <mxCell id="Y3pJVZtkwfNHuPZyGrr0-49" value="No" style="text;html=1;align=center;verticalAlign=middle;resizable=0;points=[];autosize=1;strokeColor=none;fillColor=none;" parent="Y3pJVZtkwfNHuPZyGrr0-42" vertex="1">
          <mxGeometry x="25.5" y="312" width="40" height="30" as="geometry" />
        </mxCell>
        <mxCell id="Y3pJVZtkwfNHuPZyGrr0-50" value="Start" style="text;html=1;align=center;verticalAlign=middle;resizable=0;points=[];autosize=1;strokeColor=none;fillColor=none;fontStyle=1" parent="Y3pJVZtkwfNHuPZyGrr0-42" vertex="1">
          <mxGeometry x="90" y="62" width="50" height="30" as="geometry" />
        </mxCell>
        <mxCell id="Y3pJVZtkwfNHuPZyGrr0-51" value="Logout" style="swimlane;whiteSpace=wrap" parent="1" vertex="1">
          <mxGeometry x="590" y="100" width="260" height="570" as="geometry" />
        </mxCell>
        <mxCell id="Y3pJVZtkwfNHuPZyGrr0-52" value="" style="ellipse;shape=endState;fillColor=#000000;strokeColor=#ff0000" parent="Y3pJVZtkwfNHuPZyGrr0-51" vertex="1">
          <mxGeometry x="130" y="521" width="30" height="30" as="geometry" />
        </mxCell>
        <mxCell id="Y3pJVZtkwfNHuPZyGrr0-53" style="edgeStyle=orthogonalEdgeStyle;rounded=0;orthogonalLoop=1;jettySize=auto;html=1;" parent="Y3pJVZtkwfNHuPZyGrr0-51" source="Y3pJVZtkwfNHuPZyGrr0-54" target="Y3pJVZtkwfNHuPZyGrr0-56" edge="1">
          <mxGeometry relative="1" as="geometry" />
        </mxCell>
        <mxCell id="Y3pJVZtkwfNHuPZyGrr0-54" value="Kembali ke menu halaman&#xa;dasboard" style="" parent="Y3pJVZtkwfNHuPZyGrr0-51" vertex="1">
          <mxGeometry x="62.5" y="82" width="165" height="98" as="geometry" />
        </mxCell>
        <mxCell id="Y3pJVZtkwfNHuPZyGrr0-55" style="edgeStyle=orthogonalEdgeStyle;rounded=0;orthogonalLoop=1;jettySize=auto;html=1;entryX=0.5;entryY=0;entryDx=0;entryDy=0;" parent="Y3pJVZtkwfNHuPZyGrr0-51" source="Y3pJVZtkwfNHuPZyGrr0-56" target="Y3pJVZtkwfNHuPZyGrr0-59" edge="1">
          <mxGeometry relative="1" as="geometry" />
        </mxCell>
        <mxCell id="Y3pJVZtkwfNHuPZyGrr0-56" value="Masuk menu logout" style="" parent="Y3pJVZtkwfNHuPZyGrr0-51" vertex="1">
          <mxGeometry x="62.5" y="228" width="165" height="98" as="geometry" />
        </mxCell>
        <mxCell id="Y3pJVZtkwfNHuPZyGrr0-57" style="edgeStyle=orthogonalEdgeStyle;rounded=0;orthogonalLoop=1;jettySize=auto;html=1;entryX=0;entryY=0.5;entryDx=0;entryDy=0;" parent="Y3pJVZtkwfNHuPZyGrr0-51" source="Y3pJVZtkwfNHuPZyGrr0-59" target="Y3pJVZtkwfNHuPZyGrr0-54" edge="1">
          <mxGeometry relative="1" as="geometry">
            <Array as="points">
              <mxPoint x="43" y="441" />
              <mxPoint x="43" y="131" />
            </Array>
          </mxGeometry>
        </mxCell>
        <mxCell id="Y3pJVZtkwfNHuPZyGrr0-58" style="edgeStyle=orthogonalEdgeStyle;rounded=0;orthogonalLoop=1;jettySize=auto;html=1;" parent="Y3pJVZtkwfNHuPZyGrr0-51" source="Y3pJVZtkwfNHuPZyGrr0-59" target="Y3pJVZtkwfNHuPZyGrr0-52" edge="1">
          <mxGeometry relative="1" as="geometry" />
        </mxCell>
        <mxCell id="Y3pJVZtkwfNHuPZyGrr0-59" value="validasi logout" style="rhombus;whiteSpace=wrap;html=1;" parent="Y3pJVZtkwfNHuPZyGrr0-51" vertex="1">
          <mxGeometry x="100" y="392" width="90" height="88" as="geometry" />
        </mxCell>
        <mxCell id="Y3pJVZtkwfNHuPZyGrr0-60" value="Finish" style="text;html=1;align=center;verticalAlign=middle;resizable=0;points=[];autosize=1;strokeColor=none;fillColor=none;fontStyle=1" parent="Y3pJVZtkwfNHuPZyGrr0-51" vertex="1">
          <mxGeometry x="170" y="521" width="60" height="30" as="geometry" />
        </mxCell>
        <mxCell id="Y3pJVZtkwfNHuPZyGrr0-61" value="Return Book" style="swimlane;whiteSpace=wrap" parent="1" vertex="1">
          <mxGeometry x="295" y="100" width="295" height="570" as="geometry" />
        </mxCell>
        <mxCell id="Y3pJVZtkwfNHuPZyGrr0-62" style="edgeStyle=orthogonalEdgeStyle;rounded=0;orthogonalLoop=1;jettySize=auto;html=1;" parent="Y3pJVZtkwfNHuPZyGrr0-61" source="Y3pJVZtkwfNHuPZyGrr0-63" target="Y3pJVZtkwfNHuPZyGrr0-65" edge="1">
          <mxGeometry relative="1" as="geometry" />
        </mxCell>
        <mxCell id="Y3pJVZtkwfNHuPZyGrr0-63" value="Menu kembalikan&#xa;buku" style="" parent="Y3pJVZtkwfNHuPZyGrr0-61" vertex="1">
          <mxGeometry x="80" y="180" width="130" height="70" as="geometry" />
        </mxCell>
        <mxCell id="Y3pJVZtkwfNHuPZyGrr0-64" style="edgeStyle=orthogonalEdgeStyle;rounded=0;orthogonalLoop=1;jettySize=auto;html=1;entryX=0.5;entryY=0;entryDx=0;entryDy=0;" parent="Y3pJVZtkwfNHuPZyGrr0-61" source="Y3pJVZtkwfNHuPZyGrr0-65" target="Y3pJVZtkwfNHuPZyGrr0-66" edge="1">
          <mxGeometry relative="1" as="geometry" />
        </mxCell>
        <mxCell id="Y3pJVZtkwfNHuPZyGrr0-65" value="Masukan data diri" style="" parent="Y3pJVZtkwfNHuPZyGrr0-61" vertex="1">
          <mxGeometry x="80" y="310" width="130" height="70" as="geometry" />
        </mxCell>
        <mxCell id="Y3pJVZtkwfNHuPZyGrr0-66" value="Tampil book report&#xa;pengembalian" style="" parent="Y3pJVZtkwfNHuPZyGrr0-61" vertex="1">
          <mxGeometry x="80" y="460" width="130" height="70" as="geometry" />
        </mxCell>
        <mxCell id="Y3pJVZtkwfNHuPZyGrr0-67" style="edgeStyle=orthogonalEdgeStyle;rounded=0;orthogonalLoop=1;jettySize=auto;html=1;entryX=0.5;entryY=0;entryDx=0;entryDy=0;" parent="Y3pJVZtkwfNHuPZyGrr0-61" source="Y3pJVZtkwfNHuPZyGrr0-68" target="Y3pJVZtkwfNHuPZyGrr0-63" edge="1">
          <mxGeometry relative="1" as="geometry" />
        </mxCell>
        <mxCell id="Y3pJVZtkwfNHuPZyGrr0-68" value="Masuk menu halaman&#xa;dasboard" style="" parent="Y3pJVZtkwfNHuPZyGrr0-61" vertex="1">
          <mxGeometry x="80" y="50" width="130" height="70" as="geometry" />
        </mxCell>
        <mxCell id="Y3pJVZtkwfNHuPZyGrr0-69" style="edgeStyle=orthogonalEdgeStyle;rounded=0;orthogonalLoop=1;jettySize=auto;html=1;entryX=0;entryY=0.5;entryDx=0;entryDy=0;" parent="1" source="Y3pJVZtkwfNHuPZyGrr0-48" target="Y3pJVZtkwfNHuPZyGrr0-68" edge="1">
          <mxGeometry relative="1" as="geometry">
            <Array as="points">
              <mxPoint x="280" y="494" />
              <mxPoint x="280" y="185" />
            </Array>
          </mxGeometry>
        </mxCell>
        <mxCell id="Y3pJVZtkwfNHuPZyGrr0-70" style="edgeStyle=orthogonalEdgeStyle;rounded=0;orthogonalLoop=1;jettySize=auto;html=1;entryX=0;entryY=0.5;entryDx=0;entryDy=0;" parent="1" source="Y3pJVZtkwfNHuPZyGrr0-66" target="Y3pJVZtkwfNHuPZyGrr0-54" edge="1">
          <mxGeometry relative="1" as="geometry" />
        </mxCell>
        <mxCell id="Y3pJVZtkwfNHuPZyGrr0-71" value="Login Anggota" style="swimlane;whiteSpace=wrap" parent="1" vertex="1">
          <mxGeometry x="70" y="700" width="280" height="570" as="geometry" />
        </mxCell>
        <mxCell id="Y3pJVZtkwfNHuPZyGrr0-72" value="" style="ellipse;shape=startState;fillColor=#000000;strokeColor=#ff0000;" parent="Y3pJVZtkwfNHuPZyGrr0-71" vertex="1">
          <mxGeometry x="100" y="92" width="30" height="30" as="geometry" />
        </mxCell>
        <mxCell id="Y3pJVZtkwfNHuPZyGrr0-73" value="" style="edgeStyle=elbowEdgeStyle;elbow=horizontal;verticalAlign=bottom;endArrow=open;endSize=8;strokeColor=#FF0000;endFill=1;rounded=0" parent="Y3pJVZtkwfNHuPZyGrr0-71" source="Y3pJVZtkwfNHuPZyGrr0-72" target="Y3pJVZtkwfNHuPZyGrr0-75" edge="1">
          <mxGeometry x="100" y="40" as="geometry">
            <mxPoint x="115" y="110" as="targetPoint" />
          </mxGeometry>
        </mxCell>
        <mxCell id="Y3pJVZtkwfNHuPZyGrr0-74" style="edgeStyle=orthogonalEdgeStyle;rounded=0;orthogonalLoop=1;jettySize=auto;html=1;entryX=0.5;entryY=0;entryDx=0;entryDy=0;" parent="Y3pJVZtkwfNHuPZyGrr0-71" source="Y3pJVZtkwfNHuPZyGrr0-75" target="Y3pJVZtkwfNHuPZyGrr0-77" edge="1">
          <mxGeometry relative="1" as="geometry" />
        </mxCell>
        <mxCell id="Y3pJVZtkwfNHuPZyGrr0-75" value="Masukan email &#xa;&amp; password" style="" parent="Y3pJVZtkwfNHuPZyGrr0-71" vertex="1">
          <mxGeometry x="50" y="214" width="130" height="70" as="geometry" />
        </mxCell>
        <mxCell id="Y3pJVZtkwfNHuPZyGrr0-76" style="edgeStyle=orthogonalEdgeStyle;rounded=0;orthogonalLoop=1;jettySize=auto;html=1;entryX=0;entryY=0.5;entryDx=0;entryDy=0;" parent="Y3pJVZtkwfNHuPZyGrr0-71" source="Y3pJVZtkwfNHuPZyGrr0-77" target="Y3pJVZtkwfNHuPZyGrr0-75" edge="1">
          <mxGeometry relative="1" as="geometry">
            <Array as="points">
              <mxPoint x="30" y="394" />
              <mxPoint x="30" y="249" />
            </Array>
          </mxGeometry>
        </mxCell>
        <mxCell id="Y3pJVZtkwfNHuPZyGrr0-77" value="Validasi&lt;br&gt;Token" style="rhombus;whiteSpace=wrap;html=1;" parent="Y3pJVZtkwfNHuPZyGrr0-71" vertex="1">
          <mxGeometry x="75" y="354" width="80" height="80" as="geometry" />
        </mxCell>
        <mxCell id="Y3pJVZtkwfNHuPZyGrr0-78" value="No" style="text;html=1;align=center;verticalAlign=middle;resizable=0;points=[];autosize=1;strokeColor=none;fillColor=none;" parent="Y3pJVZtkwfNHuPZyGrr0-71" vertex="1">
          <mxGeometry x="25.5" y="312" width="40" height="30" as="geometry" />
        </mxCell>
        <mxCell id="Y3pJVZtkwfNHuPZyGrr0-79" value="Start" style="text;html=1;align=center;verticalAlign=middle;resizable=0;points=[];autosize=1;strokeColor=none;fillColor=none;fontStyle=1" parent="Y3pJVZtkwfNHuPZyGrr0-71" vertex="1">
          <mxGeometry x="90" y="62" width="50" height="30" as="geometry" />
        </mxCell>
        <mxCell id="Y3pJVZtkwfNHuPZyGrr0-80" value="Dasboard" style="swimlane;whiteSpace=wrap" parent="1" vertex="1">
          <mxGeometry x="350" y="700" width="280" height="570" as="geometry" />
        </mxCell>
        <mxCell id="Y3pJVZtkwfNHuPZyGrr0-81" style="edgeStyle=orthogonalEdgeStyle;rounded=0;orthogonalLoop=1;jettySize=auto;html=1;entryX=0.5;entryY=0;entryDx=0;entryDy=0;" parent="Y3pJVZtkwfNHuPZyGrr0-80" source="Y3pJVZtkwfNHuPZyGrr0-82" target="Y3pJVZtkwfNHuPZyGrr0-84" edge="1">
          <mxGeometry relative="1" as="geometry" />
        </mxCell>
        <mxCell id="Y3pJVZtkwfNHuPZyGrr0-82" value="Masuk menu halaman&#xa;dasboard" style="" parent="Y3pJVZtkwfNHuPZyGrr0-80" vertex="1">
          <mxGeometry x="65.5" y="70" width="130" height="70" as="geometry" />
        </mxCell>
        <mxCell id="Y3pJVZtkwfNHuPZyGrr0-83" style="edgeStyle=orthogonalEdgeStyle;rounded=0;orthogonalLoop=1;jettySize=auto;html=1;entryX=0.5;entryY=0;entryDx=0;entryDy=0;" parent="Y3pJVZtkwfNHuPZyGrr0-80" source="Y3pJVZtkwfNHuPZyGrr0-84" target="Y3pJVZtkwfNHuPZyGrr0-85" edge="1">
          <mxGeometry relative="1" as="geometry" />
        </mxCell>
        <mxCell id="Y3pJVZtkwfNHuPZyGrr0-84" value="Search Buku" style="" parent="Y3pJVZtkwfNHuPZyGrr0-80" vertex="1">
          <mxGeometry x="65.5" y="215" width="130" height="70" as="geometry" />
        </mxCell>
        <mxCell id="Y3pJVZtkwfNHuPZyGrr0-85" value="View Buku" style="" parent="Y3pJVZtkwfNHuPZyGrr0-80" vertex="1">
          <mxGeometry x="65.5" y="337" width="130" height="70" as="geometry" />
        </mxCell>
        <mxCell id="Y3pJVZtkwfNHuPZyGrr0-86" value="Borrow Book" style="swimlane;whiteSpace=wrap" parent="1" vertex="1">
          <mxGeometry x="630" y="700" width="415.5" height="570" as="geometry" />
        </mxCell>
        <mxCell id="Y3pJVZtkwfNHuPZyGrr0-87" style="edgeStyle=orthogonalEdgeStyle;rounded=0;orthogonalLoop=1;jettySize=auto;html=1;entryX=0.5;entryY=0;entryDx=0;entryDy=0;" parent="Y3pJVZtkwfNHuPZyGrr0-86" source="Y3pJVZtkwfNHuPZyGrr0-88" target="Y3pJVZtkwfNHuPZyGrr0-94" edge="1">
          <mxGeometry relative="1" as="geometry" />
        </mxCell>
        <mxCell id="Y3pJVZtkwfNHuPZyGrr0-88" value="Pinjam Buku" style="" parent="Y3pJVZtkwfNHuPZyGrr0-86" vertex="1">
          <mxGeometry x="75" y="62" width="130" height="70" as="geometry" />
        </mxCell>
        <mxCell id="Y3pJVZtkwfNHuPZyGrr0-89" style="edgeStyle=orthogonalEdgeStyle;rounded=0;orthogonalLoop=1;jettySize=auto;html=1;entryX=0.5;entryY=0;entryDx=0;entryDy=0;" parent="Y3pJVZtkwfNHuPZyGrr0-86" source="Y3pJVZtkwfNHuPZyGrr0-90" target="Y3pJVZtkwfNHuPZyGrr0-91" edge="1">
          <mxGeometry relative="1" as="geometry" />
        </mxCell>
        <mxCell id="Y3pJVZtkwfNHuPZyGrr0-90" value="Masukan data diri" style="" parent="Y3pJVZtkwfNHuPZyGrr0-86" vertex="1">
          <mxGeometry x="235.5" y="361" width="130" height="70" as="geometry" />
        </mxCell>
        <mxCell id="Y3pJVZtkwfNHuPZyGrr0-91" value="Tampil book report&#xa;peminjaman" style="" parent="Y3pJVZtkwfNHuPZyGrr0-86" vertex="1">
          <mxGeometry x="235.5" y="482" width="130" height="70" as="geometry" />
        </mxCell>
        <mxCell id="Y3pJVZtkwfNHuPZyGrr0-92" style="edgeStyle=orthogonalEdgeStyle;rounded=0;orthogonalLoop=1;jettySize=auto;html=1;" parent="Y3pJVZtkwfNHuPZyGrr0-86" source="Y3pJVZtkwfNHuPZyGrr0-94" target="Y3pJVZtkwfNHuPZyGrr0-90" edge="1">
          <mxGeometry relative="1" as="geometry" />
        </mxCell>
        <mxCell id="Y3pJVZtkwfNHuPZyGrr0-93" style="edgeStyle=orthogonalEdgeStyle;rounded=0;orthogonalLoop=1;jettySize=auto;html=1;entryX=0.5;entryY=0;entryDx=0;entryDy=0;" parent="Y3pJVZtkwfNHuPZyGrr0-86" source="Y3pJVZtkwfNHuPZyGrr0-94" target="Y3pJVZtkwfNHuPZyGrr0-97" edge="1">
          <mxGeometry relative="1" as="geometry" />
        </mxCell>
        <mxCell id="Y3pJVZtkwfNHuPZyGrr0-94" value="Stock Available&lt;br&gt;/ Not Available" style="rhombus;whiteSpace=wrap;html=1;" parent="Y3pJVZtkwfNHuPZyGrr0-86" vertex="1">
          <mxGeometry x="235.5" y="181" width="130" height="138" as="geometry" />
        </mxCell>
        <mxCell id="Y3pJVZtkwfNHuPZyGrr0-95" value="Not Available" style="text;html=1;align=center;verticalAlign=middle;resizable=0;points=[];autosize=1;strokeColor=none;fillColor=none;" parent="Y3pJVZtkwfNHuPZyGrr0-86" vertex="1">
          <mxGeometry x="125.5" y="222" width="90" height="30" as="geometry" />
        </mxCell>
        <mxCell id="Y3pJVZtkwfNHuPZyGrr0-96" value="Available" style="text;html=1;align=center;verticalAlign=middle;resizable=0;points=[];autosize=1;strokeColor=none;fillColor=none;" parent="Y3pJVZtkwfNHuPZyGrr0-86" vertex="1">
          <mxGeometry x="233.5" y="330" width="70" height="30" as="geometry" />
        </mxCell>
        <mxCell id="Y3pJVZtkwfNHuPZyGrr0-97" value="Masukan ke wishlist" style="" parent="Y3pJVZtkwfNHuPZyGrr0-86" vertex="1">
          <mxGeometry x="55.5" y="372" width="130" height="70" as="geometry" />
        </mxCell>
        <mxCell id="Y3pJVZtkwfNHuPZyGrr0-98" value="Logout" style="swimlane;whiteSpace=wrap" parent="1" vertex="1">
          <mxGeometry x="1045.5" y="700" width="280" height="570" as="geometry" />
        </mxCell>
        <mxCell id="Y3pJVZtkwfNHuPZyGrr0-99" value="" style="ellipse;shape=endState;fillColor=#000000;strokeColor=#ff0000" parent="Y3pJVZtkwfNHuPZyGrr0-98" vertex="1">
          <mxGeometry x="130" y="521" width="30" height="30" as="geometry" />
        </mxCell>
        <mxCell id="Y3pJVZtkwfNHuPZyGrr0-100" style="edgeStyle=orthogonalEdgeStyle;rounded=0;orthogonalLoop=1;jettySize=auto;html=1;" parent="Y3pJVZtkwfNHuPZyGrr0-98" source="Y3pJVZtkwfNHuPZyGrr0-101" target="Y3pJVZtkwfNHuPZyGrr0-103" edge="1">
          <mxGeometry relative="1" as="geometry" />
        </mxCell>
        <mxCell id="Y3pJVZtkwfNHuPZyGrr0-101" value="Kembali ke menu halaman&#xa;dasboard" style="" parent="Y3pJVZtkwfNHuPZyGrr0-98" vertex="1">
          <mxGeometry x="62.5" y="82" width="165" height="98" as="geometry" />
        </mxCell>
        <mxCell id="Y3pJVZtkwfNHuPZyGrr0-102" style="edgeStyle=orthogonalEdgeStyle;rounded=0;orthogonalLoop=1;jettySize=auto;html=1;entryX=0.5;entryY=0;entryDx=0;entryDy=0;" parent="Y3pJVZtkwfNHuPZyGrr0-98" source="Y3pJVZtkwfNHuPZyGrr0-103" target="Y3pJVZtkwfNHuPZyGrr0-106" edge="1">
          <mxGeometry relative="1" as="geometry" />
        </mxCell>
        <mxCell id="Y3pJVZtkwfNHuPZyGrr0-103" value="Masuk menu logout" style="" parent="Y3pJVZtkwfNHuPZyGrr0-98" vertex="1">
          <mxGeometry x="62.5" y="228" width="165" height="98" as="geometry" />
        </mxCell>
        <mxCell id="Y3pJVZtkwfNHuPZyGrr0-104" style="edgeStyle=orthogonalEdgeStyle;rounded=0;orthogonalLoop=1;jettySize=auto;html=1;entryX=0;entryY=0.5;entryDx=0;entryDy=0;" parent="Y3pJVZtkwfNHuPZyGrr0-98" source="Y3pJVZtkwfNHuPZyGrr0-106" target="Y3pJVZtkwfNHuPZyGrr0-101" edge="1">
          <mxGeometry relative="1" as="geometry">
            <Array as="points">
              <mxPoint x="43" y="441" />
              <mxPoint x="43" y="131" />
            </Array>
          </mxGeometry>
        </mxCell>
        <mxCell id="Y3pJVZtkwfNHuPZyGrr0-105" style="edgeStyle=orthogonalEdgeStyle;rounded=0;orthogonalLoop=1;jettySize=auto;html=1;" parent="Y3pJVZtkwfNHuPZyGrr0-98" source="Y3pJVZtkwfNHuPZyGrr0-106" target="Y3pJVZtkwfNHuPZyGrr0-99" edge="1">
          <mxGeometry relative="1" as="geometry" />
        </mxCell>
        <mxCell id="Y3pJVZtkwfNHuPZyGrr0-106" value="validasi logout" style="rhombus;whiteSpace=wrap;html=1;" parent="Y3pJVZtkwfNHuPZyGrr0-98" vertex="1">
          <mxGeometry x="100" y="392" width="90" height="88" as="geometry" />
        </mxCell>
        <mxCell id="Y3pJVZtkwfNHuPZyGrr0-107" value="Finish" style="text;html=1;align=center;verticalAlign=middle;resizable=0;points=[];autosize=1;strokeColor=none;fillColor=none;fontStyle=1" parent="Y3pJVZtkwfNHuPZyGrr0-98" vertex="1">
          <mxGeometry x="170" y="521" width="60" height="30" as="geometry" />
        </mxCell>
        <mxCell id="Y3pJVZtkwfNHuPZyGrr0-108" style="edgeStyle=orthogonalEdgeStyle;rounded=0;orthogonalLoop=1;jettySize=auto;html=1;entryX=0;entryY=0.5;entryDx=0;entryDy=0;" parent="1" source="Y3pJVZtkwfNHuPZyGrr0-77" target="Y3pJVZtkwfNHuPZyGrr0-82" edge="1">
          <mxGeometry relative="1" as="geometry" />
        </mxCell>
        <mxCell id="Y3pJVZtkwfNHuPZyGrr0-109" style="edgeStyle=orthogonalEdgeStyle;rounded=0;orthogonalLoop=1;jettySize=auto;html=1;entryX=0;entryY=0.5;entryDx=0;entryDy=0;" parent="1" source="Y3pJVZtkwfNHuPZyGrr0-85" target="Y3pJVZtkwfNHuPZyGrr0-88" edge="1">
          <mxGeometry relative="1" as="geometry" />
        </mxCell>
        <mxCell id="Y3pJVZtkwfNHuPZyGrr0-110" style="edgeStyle=orthogonalEdgeStyle;rounded=0;orthogonalLoop=1;jettySize=auto;html=1;entryX=0;entryY=0.5;entryDx=0;entryDy=0;" parent="1" source="Y3pJVZtkwfNHuPZyGrr0-91" target="Y3pJVZtkwfNHuPZyGrr0-101" edge="1">
          <mxGeometry relative="1" as="geometry">
            <Array as="points">
              <mxPoint x="1025.5" y="1209" />
              <mxPoint x="1025.5" y="831" />
            </Array>
          </mxGeometry>
        </mxCell>
        <mxCell id="Y3pJVZtkwfNHuPZyGrr0-111" style="edgeStyle=orthogonalEdgeStyle;rounded=0;orthogonalLoop=1;jettySize=auto;html=1;entryX=1;entryY=0.5;entryDx=0;entryDy=0;" parent="1" source="Y3pJVZtkwfNHuPZyGrr0-97" target="Y3pJVZtkwfNHuPZyGrr0-82" edge="1">
          <mxGeometry relative="1" as="geometry" />
        </mxCell>
      </root>
    </mxGraphModel>
  </diagram>
</mxfile>
